<svg xmlns="http://www.w3.org/2000/svg" xmlns:xlink="http://www.w3.org/1999/xlink" width="72.112" height="88.004" viewBox="0 0 72.112 88.004">
  <defs>
    <clipPath id="clip-path">
      <rect id="Rectangle_755" data-name="Rectangle 755" width="72.112" height="88.004" transform="translate(0 0)" fill="none"/>
    </clipPath>
  </defs>
  <g id="arenas" transform="translate(0 0)">
    <g id="Group_1957" data-name="Group 1957" clip-path="url(#clip-path)">
      <path id="Path_2696" data-name="Path 2696" d="M17.752,0A17.735,17.735,0,0,0,5.19,30.282,15.767,15.767,0,0,0,20.6,34.625L59.752,68.844a1.99,1.99,0,0,0,.657.375,6.407,6.407,0,0,0,5.531-.656,9.007,9.007,0,0,1-.75,12.5A10.153,10.153,0,0,1,59,83.969,8.024,8.024,0,0,1,52.5,81.5v-.031L29.284,58.282a11.234,11.234,0,0,0-8.094-3.469c-.185,0-.379-.012-.563,0A12.335,12.335,0,0,0,9.471,66a11.189,11.189,0,0,0,3.469,8.657,2,2,0,0,0,2.868-2.789c-.018-.019-.037-.037-.056-.055A6.927,6.927,0,0,1,13.44,66.25a8.377,8.377,0,0,1,7.437-7.437,6.987,6.987,0,0,1,5.594,2.312L49.69,84.313v.031a12.293,12.293,0,0,0,9.625,3.625A14.067,14.067,0,0,0,68,83.906,13.389,13.389,0,0,0,72.1,75.094a13.627,13.627,0,0,0-3.344-9.375,6.273,6.273,0,0,0,.469-5.375,1.992,1.992,0,0,0-.375-.594c-12.1-13.755-22.165-25.47-34.219-39.156A15.8,15.8,0,0,0,30.284,5.188,17.651,17.651,0,0,0,17.752,0Zm0,4a13.681,13.681,0,0,1,9.719,4.032c.086.085.168.163.25.25a3.25,3.25,0,0,1-.219,1A14,14,0,0,1,26,12.25a48.025,48.025,0,0,1-6.312,7.469,48.844,48.844,0,0,1-7.531,6.219,14.679,14.679,0,0,1-2.969,1.5,3.421,3.421,0,0,1-1,.219c-.065-.063-.123-.123-.188-.188A13.751,13.751,0,0,1,17.752,4m12.719,8.5a11.547,11.547,0,0,1-.156,8.563A16.689,16.689,0,0,1,20.5,30.5c-.042.009-.083.02-.125.031a11.38,11.38,0,0,1-8-.094c.629-.322,1.282-.707,1.938-1.125a51.874,51.874,0,0,0,8.187-6.75,51.054,51.054,0,0,0,6.844-8.156C29.766,13.756,30.146,13.126,30.471,12.5Zm9.375,20.094C48.432,42.42,56.4,51.646,65.565,62.063a2.722,2.722,0,0,1-.938,2.531,3.036,3.036,0,0,1-2.562.937L32.627,39.813Z" fill="#1996fc" fill-rule="evenodd"/>
    </g>
  </g>
</svg>
