<svg xmlns="http://www.w3.org/2000/svg" width="93.233" height="87.085" viewBox="0 0 93.233 87.085">
  <g id="entertainment" transform="translate(-476.203 -336.074)">
    <path id="Path_2357" data-name="Path 2357" d="M562.408,371.275l-.347.358c-2.538-2.473-5.162-5.029-7.062-9.985a1.568,1.568,0,0,0-1.726-.97A1.548,1.548,0,0,0,552,362.2v43.23l-.747-.424a10.96,10.96,0,0,0-5.421-1.327,14.634,14.634,0,0,0-2.83.284c-6.444,1.278-11.491,6.324-11.491,11.487a7.114,7.114,0,0,0,2.647,5.583c2.3,1.886,5.733,2.57,9.442,1.84,6.444-1.279,11.492-6.325,11.492-11.488V368.537l.892,1.134a41.961,41.961,0,0,0,3.845,4.129c3.589,3.5,6.4,6.228,6.5,14.538h3.1c-.117-9.626-3.8-13.223-7.373-16.7Zm-19.4,48.564h0a11.528,11.528,0,0,1-2.233.225,7.326,7.326,0,0,1-4.645-1.423,3.949,3.949,0,0,1-1.518-3.188c0-3.61,4.12-7.48,9-8.452,2.708-.536,5.321-.08,6.878,1.2a3.952,3.952,0,0,1,1.519,3.188C552.009,415,547.889,418.872,543.012,419.839Z" fill="#1996fc"/>
    <path id="Path_2358" data-name="Path 2358" d="M536.026,336.366a1.568,1.568,0,0,0-1.4-.214L497.75,348.441a1.546,1.546,0,0,0-1.057,1.469v41.18l-.747-.424a10.969,10.969,0,0,0-5.421-1.327,14.635,14.635,0,0,0-2.83.284c-6.444,1.279-11.492,6.324-11.492,11.488a7.117,7.117,0,0,0,2.649,5.583c2.3,1.886,5.746,2.572,9.44,1.838,6.445-1.278,11.493-6.324,11.493-11.487V363.321l33.779-11.258V378.8l-.747-.424a12.05,12.05,0,0,0-8.251-1.043c-6.444,1.28-11.492,6.325-11.492,11.488a7.114,7.114,0,0,0,2.648,5.582c2.3,1.89,5.748,2.576,9.441,1.84,6.452-1.274,11.505-6.32,11.505-11.488V337.62A1.544,1.544,0,0,0,536.026,336.366ZM487.7,405.5h0a11.5,11.5,0,0,1-2.23.225,7.323,7.323,0,0,1-4.648-1.423,3.952,3.952,0,0,1-1.518-3.188c0-3.61,4.12-7.48,9-8.452,2.709-.535,5.323-.079,6.879,1.2a3.947,3.947,0,0,1,1.517,3.187C496.692,400.66,492.572,404.53,487.7,405.5Zm12.092-45.442v-9.028l33.779-11.259v9.025Zm24.787,33.152h0a11.5,11.5,0,0,1-2.23.225,7.323,7.323,0,0,1-4.648-1.423,3.947,3.947,0,0,1-1.518-3.188c0-3.61,4.12-7.48,9-8.452,2.678-.532,5.322-.081,6.878,1.2a3.942,3.942,0,0,1,1.518,3.186C533.566,388.371,529.446,392.242,524.574,393.208Z" fill="#1996fc"/>
  </g>
</svg>
