<svg xmlns="http://www.w3.org/2000/svg" width="94.904" height="91.304" viewBox="0 0 94.904 91.304">
  <g id="events" transform="translate(-224.397 -334.992)">
    <path id="Path_2354" data-name="Path 2354" d="M307.926,344.16h-6.365v-7.521a1.648,1.648,0,1,0-3.3,0v7.521H273.5v-7.521a1.648,1.648,0,0,0-3.3,0v7.521H245.433v-7.521a1.66,1.66,0,0,0-.482-1.165,1.7,1.7,0,0,0-2.33,0,1.639,1.639,0,0,0-.482,1.166v7.521h-6.366A11.374,11.374,0,0,0,224.4,355.534V414.92A11.376,11.376,0,0,0,235.773,426.3h72.153A11.374,11.374,0,0,0,319.3,414.92V355.534a11.374,11.374,0,0,0-11.375-11.374Zm8.081,70.761a8.08,8.08,0,0,1-8.08,8.08H235.774a8.08,8.08,0,0,1-8.079-8.08V371.9h88.312Zm0-46.32H227.7V355.536a8.081,8.081,0,0,1,8.08-8.08h6.365v7.521a1.648,1.648,0,0,0,3.3,0v-7.521H270.2v7.521a1.648,1.648,0,0,0,3.3,0v-7.521h24.768v7.521a1.648,1.648,0,1,0,3.3,0v-7.521h6.366a8.081,8.081,0,0,1,8.079,8.08Z" fill="#1996fc"/>
    <path id="Path_2355" data-name="Path 2355" d="M264.381,409.3a1.687,1.687,0,0,0,2.3-.006l27.7-26.452a1.693,1.693,0,0,0,.58-1.2,1.648,1.648,0,0,0-1.637-1.707h-.012a1.654,1.654,0,0,0-1.171.49l-26.565,25.408L251.65,391.919a1.633,1.633,0,0,0-1.519-.332,1.648,1.648,0,0,0-.759,2.711Z" fill="#1996fc"/>
  </g>
</svg>
