<svg id="everton" xmlns="http://www.w3.org/2000/svg" xmlns:xlink="http://www.w3.org/1999/xlink" width="109.463" height="112.309" viewBox="0 0 109.463 112.309">
  <defs>
    <clipPath id="clip-path">
      <rect id="Rectangle_752" data-name="Rectangle 752" width="109.463" height="112.309" fill="none"/>
    </clipPath>
  </defs>
  <g id="Group_1952" data-name="Group 1952" clip-path="url(#clip-path)">
    <path id="Path_2386" data-name="Path 2386" d="M109.337,69.768l-6.82-2.687a6.3,6.3,0,0,1,.837-1.851l3.524,1.6a.9.9,0,0,0,.355.076.856.856,0,0,0,.761-.456,5.629,5.629,0,0,0,.583-1.192,3.956,3.956,0,0,0,.228-2.484,2.592,2.592,0,0,0-1.5-1.648l-9.38-4.411a.088.088,0,0,1-.051-.025h-.025a2.614,2.614,0,0,0-2.713.38c.025-.406.025-.811.025-1.242a43.6,43.6,0,0,0-.761-7.3A51.367,51.367,0,0,0,92.554,41.5l-.507-1.521v-.025c-.355-.989-.71-2-1.014-3.017a32.4,32.4,0,0,1-1.623-8.189c0-3.093,2.687-7.935,6.287-11.231l1.673-1.546L80.359.228l-1.344.887a20.633,20.633,0,0,1-11.358,3.22A20.26,20.26,0,0,1,55.92.837L54.729,0,53.537.837A20.317,20.317,0,0,1,41.8,4.335a20.633,20.633,0,0,1-11.358-3.22L29.1.228l-15.363,14.2-1.648,1.521,1.673,1.546c3.575,3.3,6.287,8.138,6.287,11.231a32.4,32.4,0,0,1-1.623,8.189c-.3,1.014-.659,2.028-1.014,3.017L16.9,41.476A53.422,53.422,0,0,0,15.053,48.5a43.6,43.6,0,0,0-.761,7.3c0,.406,0,.837.025,1.242a2.614,2.614,0,0,0-2.713-.38H11.58a.089.089,0,0,0-.051.025L2.149,61.1a2.6,2.6,0,0,0-1.5,1.648A3.956,3.956,0,0,0,.881,65.23a10.387,10.387,0,0,0,.583,1.192.9.9,0,0,0,.786.456A.81.81,0,0,0,2.6,66.8l3.524-1.6a6.3,6.3,0,0,1,.837,1.851L.146,69.743a.305.305,0,0,0-.127.127.217.217,0,0,0,0,.177l.406,1.065A59.83,59.83,0,0,0,21.365,98.086a57.4,57.4,0,0,0,29.712,10.6l3.5,3.549a.19.19,0,0,0,.3,0l3.524-3.549a57.18,57.18,0,0,0,29.712-10.6,59.83,59.83,0,0,0,20.941-26.974l.406-1.065V69.9a.305.305,0,0,0-.127-.127M98.663,61.656a5.2,5.2,0,0,0,.3-2.662c0-.051-.025-.127-.025-.177l-.1-.431,8.037,3.777a1.416,1.416,0,0,1,.887.938,3.754,3.754,0,0,1-.507,2.434l-.1.177-8.569-3.853Zm-3.7-2.028c.634-1.014,1.293-1.6,1.9-1.6l.431.1a1.492,1.492,0,0,1,.608,1.039,4.038,4.038,0,0,1-.33,2.256l-.076.152a.025.025,0,0,1-.025.025.877.877,0,0,0,.482,1.141l.761.33,3.372,1.521-.862,1.927L96.2,64.546a1.436,1.436,0,0,0-.456-.076,1.158,1.158,0,0,0-.989.558l-.025.025c-.127.228-.558.786-.938.862h-.152a32.6,32.6,0,0,0,1.318-6.287M92.68,68.7c.1-.3.38-1.09.482-1.394a3.846,3.846,0,0,0,.532.076,2.527,2.527,0,0,0,.406-.051,3.41,3.41,0,0,0,1.648-1.42c.025-.051.076-.051.127-.051.025,0,.051,0,.051.025l.406.177.355.127c-.38.963-.963,2.332-1.5,3.448Zm1.952,1.977A45.905,45.905,0,0,1,80.461,87.033,44.02,44.02,0,0,1,57.238,95.2L59.8,92.585a41.763,41.763,0,0,0,24.87-11.839,36.657,36.657,0,0,0,7.555-10.977ZM17.056,48.9a50.993,50.993,0,0,1,1.775-6.718l.507-1.5c.38-1.039.735-2.1,1.065-3.118a34.388,34.388,0,0,0,1.724-8.822c0-3.93-3.169-9.279-6.921-12.752l-.025-.025L29.326,2.89a22.529,22.529,0,0,0,12.5,3.575A22.317,22.317,0,0,0,54.754,2.586a22.375,22.375,0,0,0,12.93,3.879,22.591,22.591,0,0,0,12.5-3.575L94.328,15.972,94.3,16c-3.752,3.473-6.921,8.822-6.921,12.752a34.584,34.584,0,0,0,1.724,8.822q.456,1.559,1.065,3.118l.507,1.5A50.991,50.991,0,0,1,92.452,48.9a41.6,41.6,0,0,1,.735,6.921c0,18.051-15.008,32.907-34.276,34.783l-4.183,4.208L50.6,90.633C31.329,88.757,16.32,73.9,16.32,55.85a44.794,44.794,0,0,1,.735-6.946M52.219,95.222A44.237,44.237,0,0,1,29,87.058,46.34,46.34,0,0,1,14.825,70.706l2.408-.887A36.342,36.342,0,0,0,24.788,80.8a41.763,41.763,0,0,0,24.87,11.839ZM16.777,68.678l-2.51.938c-.532-1.09-1.115-2.484-1.5-3.448l.355-.127.406-.177c.025,0,.025-.025.051-.025a.194.194,0,0,1,.127.051,3.41,3.41,0,0,0,1.648,1.42,1.97,1.97,0,0,0,.406.051,1.247,1.247,0,0,0,.532-.1c.1.33.38,1.115.482,1.42m-4.792-7.022V61.63l-.076-.152a4.038,4.038,0,0,1-.33-2.256,1.411,1.411,0,0,1,.608-1.039l.051-.025a1.017,1.017,0,0,1,.38-.076c.583,0,1.268.583,1.9,1.6a33.932,33.932,0,0,0,1.318,6.338h-.152c-.355-.076-.786-.634-.938-.862l-.025-.025a1.158,1.158,0,0,0-.989-.558,1.436,1.436,0,0,0-.456.076l-5.02,1.977A7.2,7.2,0,0,0,7.4,64.7L11.5,62.8a.923.923,0,0,0,.482-1.141M2.3,65.712l-.1-.177A3.792,3.792,0,0,1,1.692,63.1a1.529,1.529,0,0,1,.887-.938l8.037-3.777-.1.431c0,.051-.025.127-.025.177a5.489,5.489,0,0,0,.3,2.662l.076.2Zm105.515,5.146A58.327,58.327,0,0,1,87.407,97.047a55.959,55.959,0,0,1-29.484,10.394h-.051l-3.144,3.144-3.118-3.169H51.56A55.959,55.959,0,0,1,22.075,97.022,58.085,58.085,0,0,1,1.667,70.858l-.1-.279L11.6,66.625l.1.279a47.51,47.51,0,0,0,16.58,21.22,45.559,45.559,0,0,0,25.276,8.468h.1l1.065,1.09,1.065-1.09h.127A45.559,45.559,0,0,0,81.2,88.123,47.725,47.725,0,0,0,97.776,66.9l.1-.279,10.039,3.955Z" transform="translate(0)" fill="#fff"/>
    <path id="Path_2387" data-name="Path 2387" d="M146.717,49.465a2.28,2.28,0,0,0-1.242-1.065,2.392,2.392,0,0,1,1.242,1.065" transform="translate(-108.594 -36.13)" fill="#fff"/>
    <path id="Path_2388" data-name="Path 2388" d="M145.9,50.611a3.016,3.016,0,0,1-.466-1.49,2.952,2.952,0,0,0,.466,1.49" transform="translate(-108.567 -36.668)" fill="#fff"/>
    <path id="Path_2389" data-name="Path 2389" d="M154.278,68.51a2.03,2.03,0,0,0-.334-.337,2.307,2.307,0,0,1,.334.337" transform="translate(-114.916 -50.89)" fill="#fff"/>
    <path id="Path_2390" data-name="Path 2390" d="M152.572,68.932a2.642,2.642,0,0,1-.36-1.449,2.429,2.429,0,0,0,.36,1.475A2.294,2.294,0,0,0,153.636,70a1.436,1.436,0,0,0,.019-.334,1.407,1.407,0,0,1-.019.309,2.175,2.175,0,0,1-1.065-1.039" transform="translate(-113.612 -50.375)" fill="#fff"/>
    <path id="Path_2391" data-name="Path 2391" d="M155.575,57a2.776,2.776,0,0,0,.38-1.7,2.964,2.964,0,0,1-.38,1.7" transform="translate(-116.134 -41.28)" fill="#fff"/>
    <path id="Path_2392" data-name="Path 2392" d="M158.525,65.868a3.217,3.217,0,0,1,.342-1.351,2.521,2.521,0,0,1,1.115-1.217,2.309,2.309,0,0,0-1.115,1.217,3.217,3.217,0,0,0-.342,1.351" transform="translate(-118.336 -47.252)" fill="#fff"/>
    <path id="Path_2393" data-name="Path 2393" d="M163.263,68.263a3.847,3.847,0,0,1-.187.465,3.165,3.165,0,0,0,.187-.465" transform="translate(-121.733 -50.957)" fill="#fff"/>
    <path id="Path_2394" data-name="Path 2394" d="M158.675,71.318A2.31,2.31,0,0,0,159.79,70.1a2.522,2.522,0,0,1-1.115,1.217" transform="translate(-118.448 -52.329)" fill="#fff"/>
    <path id="Path_2395" data-name="Path 2395" d="M154.766,64.03A2.2,2.2,0,0,1,155,64.6a1.823,1.823,0,0,0-.235-.566" transform="translate(-115.53 -47.797)" fill="#fff"/>
    <path id="Path_2396" data-name="Path 2396" d="M147.481,59.2h-.006a2.3,2.3,0,0,0,.786,1.318,1.9,1.9,0,0,0,1.318.583c0-.008,0-.017,0-.025a1.951,1.951,0,0,1-1.313-.583,2.535,2.535,0,0,1-.78-1.293" transform="translate(-110.087 -44.191)" fill="#fff"/>
    <path id="Path_2397" data-name="Path 2397" d="M156.822,63.682a2.738,2.738,0,0,1-.218-1.6,2.61,2.61,0,0,0,.218,1.62,2.675,2.675,0,0,0,.71-1.546,4.058,4.058,0,0,0,.043-.523,4.065,4.065,0,0,1-.043.5,2.6,2.6,0,0,1-.71,1.546" transform="translate(-116.873 -46.012)" fill="#fff"/>
    <path id="Path_2398" data-name="Path 2398" d="M155.075,87.68a2.044,2.044,0,0,0,1.521-.38,2.3,2.3,0,0,1-1.521.38" transform="translate(-115.76 -65.168)" fill="#fff"/>
    <path id="Path_2399" data-name="Path 2399" d="M159.965,75.223a3.086,3.086,0,0,1-.683.671,2.928,2.928,0,0,0,.708-.671A2.815,2.815,0,0,0,160.6,73.6l-.025.006a2.655,2.655,0,0,1-.608,1.616" transform="translate(-118.901 -54.941)" fill="#fff"/>
    <path id="Path_2400" data-name="Path 2400" d="M156.875,83.631c.03-.006.061-.015.091-.024-.03.007-.061.014-.091.019v.005" transform="translate(-117.104 -62.411)" fill="#fff"/>
    <path id="Path_2401" data-name="Path 2401" d="M153.085,84a2.758,2.758,0,0,1-.71,1.572,2.679,2.679,0,0,0,.71-1.572" transform="translate(-113.745 -62.704)" fill="#fff"/>
    <path id="Path_2402" data-name="Path 2402" d="M154.275,77.2a2.513,2.513,0,0,1,.267,1.221,2.434,2.434,0,0,0-.267-1.221" transform="translate(-115.163 -57.628)" fill="#fff"/>
    <path id="Path_2403" data-name="Path 2403" d="M151.359,98.879a2.557,2.557,0,0,1-.447.053,2.754,2.754,0,0,0,.472-.053,2.242,2.242,0,0,0,1.394-.811,1.943,1.943,0,0,0-1.125-.281,1.833,1.833,0,0,1,1.1.281,2.242,2.242,0,0,1-1.394.811" transform="translate(-112.653 -72.995)" fill="#fff"/>
    <path id="Path_2404" data-name="Path 2404" d="M104.24,84.993a2.412,2.412,0,0,0-1.065-1.293,2.532,2.532,0,0,1,1.065,1.293" transform="translate(-77.018 -62.48)" fill="#fff"/>
    <path id="Path_2405" data-name="Path 2405" d="M104.966,91.677a1.24,1.24,0,0,1-.324.033,1.357,1.357,0,0,0,.349-.033,2.412,2.412,0,0,0-1.065-1.293,2.311,2.311,0,0,0-1.205-.413,2.331,2.331,0,0,1,1.18.413,2.532,2.532,0,0,1,1.065,1.293" transform="translate(-76.679 -67.162)" fill="#fff"/>
    <path id="Path_2406" data-name="Path 2406" d="M112.636,101.2a1.832,1.832,0,0,1-1.1.281,1.826,1.826,0,0,0,1.1-.281" transform="translate(-83.259 -75.544)" fill="#fff"/>
    <path id="Path_2407" data-name="Path 2407" d="M145.361,91.245a2.424,2.424,0,0,1,.234-1.7,2.389,2.389,0,0,1,1.092-1.23s0-.008,0-.012a2.594,2.594,0,0,0-1.115,1.242,2.74,2.74,0,0,0-.254,1.724c.015-.006.03-.014.045-.021" transform="translate(-108.435 -65.914)" fill="#fff"/>
    <path id="Path_2408" data-name="Path 2408" d="M119.971,98.256a2.483,2.483,0,0,1,.982,1.347l.032,0A2.558,2.558,0,0,0,120,98.231a2.15,2.15,0,0,0-1.521-.482c0,.007,0,.015.006.022a2,2,0,0,1,1.49.485" transform="translate(-88.439 -72.955)" fill="#fff"/>
    <path id="Path_2409" data-name="Path 2409" d="M112.575,95.1a2.374,2.374,0,0,0,1.115,1.242,2.594,2.594,0,0,1-1.115-1.242" transform="translate(-84.035 -70.99)" fill="#fff"/>
    <path id="Path_2410" data-name="Path 2410" d="M114.863,91.429a3.606,3.606,0,0,0-.377-.6,3.377,3.377,0,0,1,.352.6,2.805,2.805,0,0,1,.286,1.679,2.965,2.965,0,0,0-.261-1.679" transform="translate(-85.462 -67.801)" fill="#fff"/>
    <path id="Path_2411" data-name="Path 2411" d="M111.947,48.325c.006.056.009.115.009.174a1.768,1.768,0,0,0-.009-.2,2.391,2.391,0,0,0-1.242,1.065,2.94,2.94,0,0,0-.465,1.5,2.963,2.963,0,0,1,.465-1.474,2.279,2.279,0,0,1,1.242-1.065" transform="translate(-82.292 -36.055)" fill="#fff"/>
    <path id="Path_2412" data-name="Path 2412" d="M114.975,59.2h0" transform="translate(-85.827 -44.192)" fill="#fff"/>
    <path id="Path_2413" data-name="Path 2413" d="M140.175,104.3a2.184,2.184,0,0,0,1.445.71,2.245,2.245,0,0,1-1.445-.71" transform="translate(-104.638 -77.858)" fill="#fff"/>
    <path id="Path_2414" data-name="Path 2414" d="M147.72,103.71a1.42,1.42,0,0,1-.3.18,1.42,1.42,0,0,0,.3-.18,2.184,2.184,0,0,0-1.445-.71,2.245,2.245,0,0,1,1.445.71" transform="translate(-109.191 -76.888)" fill="#fff"/>
    <path id="Path_2415" data-name="Path 2415" d="M129.579,107.975c.092-.059.183-.122.278-.175-.095.056-.187.115-.278.175" transform="translate(-96.728 -80.471)" fill="#fff"/>
    <path id="Path_2416" data-name="Path 2416" d="M123.575,113.268c.074-.1.154-.189.232-.283-.079.091-.156.185-.232.283" transform="translate(-92.246 -84.341)" fill="#fff"/>
    <path id="Path_2417" data-name="Path 2417" d="M130,107.2a1.639,1.639,0,0,0-.228-.2,1.641,1.641,0,0,0,.228.2" transform="translate(-96.874 -79.874)" fill="#fff"/>
    <path id="Path_2418" data-name="Path 2418" d="M119.092,107a1.965,1.965,0,0,0-.817.686,2.1,2.1,0,0,1,.817-.686" transform="translate(-88.29 -79.87)" fill="#fff"/>
    <path id="Path_2419" data-name="Path 2419" d="M123.675,105.961a2.842,2.842,0,0,1,.764-.079,2.835,2.835,0,0,0-.764.079" transform="translate(-92.321 -79.038)" fill="#fff"/>
    <path id="Path_2420" data-name="Path 2420" d="M141.893,110.258a1.986,1.986,0,0,1-.38.077,1.986,1.986,0,0,0,.38-.077" transform="translate(-105.637 -82.306)" fill="#fff"/>
    <path id="Path_2421" data-name="Path 2421" d="M138.875,106.2a2.837,2.837,0,0,1,.552.2,2.615,2.615,0,0,0-.552-.2" transform="translate(-103.667 -79.276)" fill="#fff"/>
    <path id="Path_2422" data-name="Path 2422" d="M131.975,107.8c.1.06.2.13.3.2-.1-.068-.195-.135-.3-.2" transform="translate(-98.517 -80.471)" fill="#fff"/>
    <path id="Path_2423" data-name="Path 2423" d="M137.381,112.478c.111.132.221.266.328.411-.108-.146-.217-.281-.328-.411" transform="translate(-102.552 -83.963)" fill="#fff"/>
    <path id="Path_2424" data-name="Path 2424" d="M135.979,105.882a2.641,2.641,0,0,1,.734.079,2.582,2.582,0,0,0-.734-.079" transform="translate(-101.506 -79.038)" fill="#fff"/>
    <path id="Path_2425" data-name="Path 2425" d="M136.14,111.123c.052.054.1.108.156.165q-.077-.084-.156-.165" transform="translate(-101.626 -82.951)" fill="#fff"/>
    <path id="Path_2426" data-name="Path 2426" d="M99.383,66.241s0-.007,0-.011a2.335,2.335,0,0,1-1.092-1.206,2.6,2.6,0,0,1-.306-1.713l-.024-.011a2.811,2.811,0,0,0,.3,1.724,2.41,2.41,0,0,0,1.115,1.217" transform="translate(-73.099 -47.252)" fill="#fff"/>
    <path id="Path_2427" data-name="Path 2427" d="M135.064,98.256a2.157,2.157,0,0,1,1.514-.482c0-.008.005-.016.007-.025a2.15,2.15,0,0,0-1.521.482,2.471,2.471,0,0,0-.989,1.369h.008a2.657,2.657,0,0,1,.981-1.344" transform="translate(-100.084 -72.955)" fill="#fff"/>
    <path id="Path_2428" data-name="Path 2428" d="M110.99,83.533a3.608,3.608,0,0,1,.035.47,3.586,3.586,0,0,0-.035-.47" transform="translate(-82.852 -62.356)" fill="#fff"/>
    <path id="Path_2429" data-name="Path 2429" d="M107.593,85.491a3.366,3.366,0,0,1-.136-.47,3.366,3.366,0,0,0,.136.47" transform="translate(-80.215 -63.467)" fill="#fff"/>
    <path id="Path_2430" data-name="Path 2430" d="M99.368,74.538a2.147,2.147,0,0,0-1.293-.938.052.052,0,0,1,0,.006,2.326,2.326,0,0,1,1.293.932" transform="translate(-73.211 -54.941)" fill="#fff"/>
    <path id="Path_2431" data-name="Path 2431" d="M100.375,80a2.191,2.191,0,0,0,1.318.938A2.3,2.3,0,0,1,100.375,80" transform="translate(-74.928 -59.719)" fill="#fff"/>
    <path id="Path_2432" data-name="Path 2432" d="M105.624,71.51a2.874,2.874,0,0,0,.259-.608,3.125,3.125,0,0,1-.259.583,2.175,2.175,0,0,1-1.065,1.039c0-.015,0-.031-.005-.046,0,.024,0,.049.005.072a2.427,2.427,0,0,0,1.065-1.039" transform="translate(-78.048 -52.927)" fill="#fff"/>
    <path id="Path_2433" data-name="Path 2433" d="M105.375,50.448a2.712,2.712,0,0,1,.558-1.648,2.652,2.652,0,0,0-.558,1.648" transform="translate(-78.66 -36.428)" fill="#fff"/>
    <path id="Path_2434" data-name="Path 2434" d="M105.752,57.748a2.844,2.844,0,0,1-.382-1.444,2.787,2.787,0,0,0,.382,1.444" transform="translate(-78.657 -42.03)" fill="#fff"/>
    <path id="Path_2435" data-name="Path 2435" d="M107.433,55.5a2.712,2.712,0,0,1-.558,1.648,2.652,2.652,0,0,0,.558-1.648" transform="translate(-79.78 -41.43)" fill="#fff"/>
    <path id="Path_2436" data-name="Path 2436" d="M102.035,63.335c-.006-.03-.009-.06-.013-.09,0,.039.008.077.013.115a2.6,2.6,0,0,0,.71,1.546,2.448,2.448,0,0,0,.246-1.227,2.356,2.356,0,0,1-.246,1.2,2.675,2.675,0,0,1-.71-1.546" transform="translate(-76.157 -47.211)" fill="#fff"/>
    <path id="Path_2437" data-name="Path 2437" d="M151.94,91.6a2.412,2.412,0,0,0-1.065,1.293A2.532,2.532,0,0,1,151.94,91.6" transform="translate(-112.625 -68.378)" fill="#fff"/>
    <path id="Path_2438" data-name="Path 2438" d="M150.875,91.674a2.043,2.043,0,0,0,1.521-.38A2.666,2.666,0,0,0,153.461,90a2.043,2.043,0,0,0-1.521.38,2.532,2.532,0,0,0-1.065,1.293" transform="translate(-112.625 -67.158)" fill="#fff"/>
    <path id="Path_2439" data-name="Path 2439" d="M146.475,98.655a1.943,1.943,0,0,0,1.125.281,1.833,1.833,0,0,1-1.1-.281,2.242,2.242,0,0,1,1.394-.811,2.557,2.557,0,0,1,.447-.053,2.753,2.753,0,0,0-.472.053,2.242,2.242,0,0,0-1.394.811" transform="translate(-109.341 -72.998)" fill="#fff"/>
    <path id="Path_2440" data-name="Path 2440" d="M146.575,98.652a1.833,1.833,0,0,0,1.1.281,2.581,2.581,0,0,0,.447-.053,2.242,2.242,0,0,0,1.394-.811,1.833,1.833,0,0,0-1.1-.281,2.555,2.555,0,0,0-.447.053,2.242,2.242,0,0,0-1.394.811" transform="translate(-109.415 -72.996)" fill="#fff"/>
    <path id="Path_2441" data-name="Path 2441" d="M152.682,67.447a1.5,1.5,0,0,0-.423-.247c0,.023,0,.048-.005.072,0-.015,0-.031.005-.046a1.219,1.219,0,0,1,.423.221" transform="translate(-113.655 -50.164)" fill="#fff"/>
    <path id="Path_2442" data-name="Path 2442" d="M155.57,69.957a2.937,2.937,0,0,0-.308-.456,2.715,2.715,0,0,1,.308.481,2.757,2.757,0,0,1,.374,1.187,2.734,2.734,0,0,0-.374-1.212" transform="translate(-115.9 -51.881)" fill="#fff"/>
    <path id="Path_2443" data-name="Path 2443" d="M153,67.858a2.309,2.309,0,0,0-.334-.337,1.211,1.211,0,0,0-.423-.221c0,.015,0,.031-.005.046a2.642,2.642,0,0,0,.36,1.449,2.175,2.175,0,0,0,1.065,1.039,1.438,1.438,0,0,0,.019-.309,2.761,2.761,0,0,0-.374-1.187,2.706,2.706,0,0,0-.308-.481" transform="translate(-113.639 -50.238)" fill="#fff"/>
    <path id="Path_2444" data-name="Path 2444" d="M157.755,82.647a1.816,1.816,0,0,1-.519.243,1.565,1.565,0,0,0,.519-.243" transform="translate(-117.374 -61.694)" fill="#fff"/>
    <path id="Path_2445" data-name="Path 2445" d="M158.7,73.606a.055.055,0,0,0,0-.006,2.191,2.191,0,0,0-1.318.938,2.815,2.815,0,0,0-.608,1.623l.026-.005a2.82,2.82,0,0,1,.608-1.617,2.327,2.327,0,0,1,1.293-.932" transform="translate(-117.029 -54.941)" fill="#fff"/>
    <path id="Path_2446" data-name="Path 2446" d="M158.169,75.241a2.655,2.655,0,0,0,.608-1.616,2.326,2.326,0,0,0-1.293.932,2.82,2.82,0,0,0-.608,1.617c.03,0,.061-.011.091-.019a1.817,1.817,0,0,0,.519-.243,3.087,3.087,0,0,0,.683-.671" transform="translate(-117.105 -54.96)" fill="#fff"/>
    <path id="Path_2447" data-name="Path 2447" d="M155.214,82.015a3.667,3.667,0,0,1-.039.5,3.611,3.611,0,0,0,.039-.5" transform="translate(-115.835 -61.223)" fill="#fff"/>
    <path id="Path_2448" data-name="Path 2448" d="M151.467,81.419a3.85,3.85,0,0,0-.147,1,3.85,3.85,0,0,1,.147-1" transform="translate(-112.957 -60.778)" fill="#fff"/>
    <path id="Path_2449" data-name="Path 2449" d="M151.6,87.807a2.371,2.371,0,0,1-.158-.6,2.371,2.371,0,0,0,.158.6" transform="translate(-113.045 -65.102)" fill="#fff"/>
    <path id="Path_2450" data-name="Path 2450" d="M151.359,78.772a3.613,3.613,0,0,0-.039.5,3.229,3.229,0,0,0,.03.465,2.381,2.381,0,0,0,.158.6,1.64,1.64,0,0,0,.08.163,2.758,2.758,0,0,0,.71-1.572,3.629,3.629,0,0,0,.039-.5,2.513,2.513,0,0,0-.267-1.221,2.356,2.356,0,0,0-.6,1.07,3.681,3.681,0,0,0-.107.5" transform="translate(-112.957 -57.628)" fill="#fff"/>
    <path id="Path_2451" data-name="Path 2451" d="M156.14,83.7a2.412,2.412,0,0,0-1.065,1.293A2.532,2.532,0,0,1,156.14,83.7" transform="translate(-115.76 -62.48)" fill="#fff"/>
    <path id="Path_2452" data-name="Path 2452" d="M156.14,82.481a2.532,2.532,0,0,0-1.065,1.293,2.3,2.3,0,0,0,1.521-.38,2.412,2.412,0,0,0,1.065-1.293,2.043,2.043,0,0,0-1.521.38" transform="translate(-115.76 -61.261)" fill="#fff"/>
    <path id="Path_2453" data-name="Path 2453" d="M158.563,73.8a1.724,1.724,0,0,1-.038-.373,1.724,1.724,0,0,0,.038.373" transform="translate(-118.336 -54.814)" fill="#fff"/>
    <path id="Path_2454" data-name="Path 2454" d="M163.815,64.558a2.468,2.468,0,0,0,.117-1.258,2.818,2.818,0,0,1-.117,1.258" transform="translate(-122.285 -47.252)" fill="#fff"/>
    <path id="Path_2455" data-name="Path 2455" d="M163.075,70.1h0" transform="translate(-121.732 -52.326)" fill="#fff"/>
    <path id="Path_2456" data-name="Path 2456" d="M158.867,64.517a3.217,3.217,0,0,0-.342,1.351,1.724,1.724,0,0,0,.038.373,2.522,2.522,0,0,0,1.115-1.217h0a3.835,3.835,0,0,0,.187-.465,2.818,2.818,0,0,0,.117-1.258,2.521,2.521,0,0,0-1.115,1.217" transform="translate(-118.336 -47.252)" fill="#fff"/>
    <path id="Path_2457" data-name="Path 2457" d="M156.715,58.475c.005-.034.009-.069.015-.1a2.675,2.675,0,0,1,.71-1.546,2.356,2.356,0,0,1,.246,1.2,2.448,2.448,0,0,0-.246-1.227,2.756,2.756,0,0,0-.71,1.546c-.007.043-.01.086-.015.129" transform="translate(-116.985 -42.4)" fill="#fff"/>
    <path id="Path_2458" data-name="Path 2458" d="M156.65,58.446c-.006.035-.01.069-.015.1a2.74,2.74,0,0,0,.218,1.6,2.6,2.6,0,0,0,.71-1.546,4.071,4.071,0,0,0,.043-.5,2.356,2.356,0,0,0-.246-1.2,2.675,2.675,0,0,0-.71,1.546" transform="translate(-116.905 -42.475)" fill="#fff"/>
    <path id="Path_2459" data-name="Path 2459" d="M153.727,48.8a2.652,2.652,0,0,0-.38,1.7,2.775,2.775,0,0,1,.38-1.7" transform="translate(-114.463 -36.428)" fill="#fff"/>
    <path id="Path_2460" data-name="Path 2460" d="M154.875,48.8a2.712,2.712,0,0,1,.558,1.648,2.652,2.652,0,0,0-.558-1.648" transform="translate(-115.611 -36.428)" fill="#fff"/>
    <path id="Path_2461" data-name="Path 2461" d="M153.538,57.015a3.35,3.35,0,0,1-.089-.485,3.35,3.35,0,0,0,.089.485" transform="translate(-114.547 -42.199)" fill="#fff"/>
    <path id="Path_2462" data-name="Path 2462" d="M153.349,50.5c0,.089.01.176.019.261a3.317,3.317,0,0,0,.089.485,2.145,2.145,0,0,0,.45.9,2.964,2.964,0,0,0,.38-1.7,2.711,2.711,0,0,0-.558-1.648,2.776,2.776,0,0,0-.38,1.7" transform="translate(-114.466 -36.428)" fill="#fff"/>
    <path id="Path_2463" data-name="Path 2463" d="M155.714,66.347c-.005-.028-.014-.057-.021-.086.006.029.012.058.016.086h0" transform="translate(-116.222 -49.463)" fill="#fff"/>
    <path id="Path_2464" data-name="Path 2464" d="M147.481,59.119a1.905,1.905,0,0,1,1.312.583,3.162,3.162,0,0,1,.53.641,2.969,2.969,0,0,0-.53-.667,1.946,1.946,0,0,0-1.318-.583c0,.008,0,.017.006.025" transform="translate(-110.087 -44.111)" fill="#fff"/>
    <path id="Path_2465" data-name="Path 2465" d="M147.5,59.195a2.535,2.535,0,0,0,.78,1.293,1.951,1.951,0,0,0,1.313.583c0-.028-.01-.057-.016-.086a2.194,2.194,0,0,0-.235-.565,3.162,3.162,0,0,0-.53-.641,1.905,1.905,0,0,0-1.312-.583" transform="translate(-110.104 -44.186)" fill="#fff"/>
    <path id="Path_2466" data-name="Path 2466" d="M147.275,55a2.392,2.392,0,0,0,1.242,1.065A2.516,2.516,0,0,1,147.275,55" transform="translate(-109.938 -41.056)" fill="#fff"/>
    <path id="Path_2467" data-name="Path 2467" d="M145.438,48.583a1.717,1.717,0,0,1,.009-.183,1.632,1.632,0,0,0-.009.183" transform="translate(-108.567 -36.13)" fill="#fff"/>
    <path id="Path_2468" data-name="Path 2468" d="M147.146,51.138a2.8,2.8,0,0,0-.456-1.673,2.391,2.391,0,0,0-1.242-1.065c-.006.059-.009.12-.009.183a3.016,3.016,0,0,0,.466,1.49,2.516,2.516,0,0,0,1.242,1.065" transform="translate(-108.567 -36.13)" fill="#fff"/>
    <path id="Path_2469" data-name="Path 2469" d="M146.723,90.024a2.443,2.443,0,0,1-1.07,1.221c0,.007,0,.014.006.021a2.449,2.449,0,0,0,1.09-1.242A2.927,2.927,0,0,0,147,88.3l-.023.012a2.754,2.754,0,0,1-.256,1.712" transform="translate(-108.727 -65.914)" fill="#fff"/>
    <path id="Path_2470" data-name="Path 2470" d="M145.682,89.577a2.425,2.425,0,0,0-.234,1.7,2.443,2.443,0,0,0,1.07-1.221,2.754,2.754,0,0,0,.256-1.712,2.39,2.39,0,0,0-1.093,1.231" transform="translate(-108.522 -65.949)" fill="#fff"/>
    <path id="Path_2471" data-name="Path 2471" d="M141.62,103.975a2.39,2.39,0,0,0,1.244-.15,1.43,1.43,0,0,0,.3-.18,2.245,2.245,0,0,0-1.445-.71,2.115,2.115,0,0,0-1.546.33,2.245,2.245,0,0,0,1.445.71" transform="translate(-104.638 -76.824)" fill="#fff"/>
    <path id="Path_2472" data-name="Path 2472" d="M135.6,99.267a2.558,2.558,0,0,0,.989-1.369h-.007a2.483,2.483,0,0,1-.982,1.344,2.158,2.158,0,0,1-1.513.482c0,.008-.006.016-.008.025a2.15,2.15,0,0,0,1.521-.482" transform="translate(-100.084 -73.078)" fill="#fff"/>
    <path id="Path_2473" data-name="Path 2473" d="M135.619,99.194a2.483,2.483,0,0,0,.982-1.344,2.157,2.157,0,0,0-1.514.482,2.657,2.657,0,0,0-.981,1.344,2.157,2.157,0,0,0,1.513-.482" transform="translate(-100.108 -73.031)" fill="#fff"/>
    <path id="Path_2474" data-name="Path 2474" d="M125.782,108.489a5.624,5.624,0,0,0-1.29,1.14,6.21,6.21,0,0,1,1.29-1.14" transform="translate(-92.931 -80.985)" fill="#fff"/>
    <path id="Path_2475" data-name="Path 2475" d="M129.3,106.425a.025.025,0,0,0-.025-.025.025.025,0,0,0,.025.025" transform="translate(-96.501 -79.426)" fill="#fff"/>
    <path id="Path_2476" data-name="Path 2476" d="M136.755,111.771q.08.087.159.179c-.052-.062-.106-.12-.159-.179" transform="translate(-102.085 -83.435)" fill="#fff"/>
    <path id="Path_2477" data-name="Path 2477" d="M119.92,110.335a1.948,1.948,0,0,1-.38-.077,1.948,1.948,0,0,0,.38.077" transform="translate(-89.234 -82.306)" fill="#fff"/>
    <path id="Path_2478" data-name="Path 2478" d="M133.147,108.579a5.551,5.551,0,0,1,.759.645,5.044,5.044,0,0,0-.759-.645" transform="translate(-99.392 -81.052)" fill="#fff"/>
    <path id="Path_2479" data-name="Path 2479" d="M124.475,107.837a2.247,2.247,0,0,0,1.344-.837,2.558,2.558,0,0,1-1.344.837" transform="translate(-92.918 -79.874)" fill="#fff"/>
    <path id="Path_2480" data-name="Path 2480" d="M132.875,107a2.258,2.258,0,0,0,1.318.837,2.387,2.387,0,0,1-1.318-.837" transform="translate(-99.189 -79.874)" fill="#fff"/>
    <path id="Path_2481" data-name="Path 2481" d="M121.5,106.4a2.832,2.832,0,0,1,.552-.2,2.6,2.6,0,0,0-.552.2" transform="translate(-90.697 -79.276)" fill="#fff"/>
    <path id="Path_2482" data-name="Path 2482" d="M132.2,107a1.64,1.64,0,0,0-.228.2c.076-.076.152-.127.228-.2" transform="translate(-98.517 -79.874)" fill="#fff"/>
    <path id="Path_2483" data-name="Path 2483" d="M141.868,107.681a1.965,1.965,0,0,0-.817-.686,2.1,2.1,0,0,1,.817.686" transform="translate(-105.292 -79.87)" fill="#fff"/>
    <path id="Path_2484" data-name="Path 2484" d="M129.375,106.5c.152.076.33.152.482.228-.152-.076-.3-.152-.482-.228" transform="translate(-96.576 -79.5)" fill="#fff"/>
    <path id="Path_2485" data-name="Path 2485" d="M133.475,106.018a1.936,1.936,0,0,1,.635-.13,1.8,1.8,0,0,0-.635.13" transform="translate(-99.636 -79.043)" fill="#fff"/>
    <path id="Path_2486" data-name="Path 2486" d="M131.275,106.654s.2-.1.558-.254a3.144,3.144,0,0,0-.558.254" transform="translate(-97.994 -79.426)" fill="#fff"/>
    <path id="Path_2487" data-name="Path 2487" d="M126.69,105.888a1.8,1.8,0,0,1,.63.13h.025a1.98,1.98,0,0,0-.655-.13" transform="translate(-94.572 -79.043)" fill="#fff"/>
    <path id="Path_2488" data-name="Path 2488" d="M121.038,106.012a1.8,1.8,0,0,0-.63-.13,2.75,2.75,0,0,0-1.316.281,2.1,2.1,0,0,0-.817.686,1.494,1.494,0,0,0,.32.141,1.966,1.966,0,0,0,.38.077,2.518,2.518,0,0,0,.871-.066,2.558,2.558,0,0,0,1.344-.837,1.64,1.64,0,0,1,.228.2c-.1.053-.186.116-.278.175a6.21,6.21,0,0,0-1.29,1.14c-.078.093-.159.183-.232.283.2.33.3.482.507.811a7.37,7.37,0,0,1,1.445-2.231,8.324,8.324,0,0,1,1.369,2.231c.2-.33.3-.482.507-.811-.107-.145-.217-.28-.328-.411q-.078-.092-.159-.179c-.051-.057-.1-.111-.156-.164a5.566,5.566,0,0,0-.759-.645c-.1-.067-.193-.138-.3-.2a1.639,1.639,0,0,1,.228-.2,2.387,2.387,0,0,0,1.318.837,2.518,2.518,0,0,0,.871.066,1.966,1.966,0,0,0,.38-.077,1.494,1.494,0,0,0,.32-.141,2.1,2.1,0,0,0-.817-.686,2.836,2.836,0,0,0-.552-.2,2.651,2.651,0,0,0-.734-.079,1.936,1.936,0,0,0-.635.13c-.355.152-.558.254-.558.254-.152-.076-.33-.152-.482-.228a.025.025,0,0,1-.025-.025h-.025Z" transform="translate(-88.29 -79.038)" fill="#fff"/>
    <path id="Path_2489" data-name="Path 2489" d="M119.364,99.259a2.15,2.15,0,0,0,1.521.482c0-.007,0-.015-.006-.022a2.179,2.179,0,0,1-1.489-.485,2.4,2.4,0,0,1-.983-1.347l-.031,0a2.471,2.471,0,0,0,.989,1.369" transform="translate(-88.365 -73.071)" fill="#fff"/>
    <path id="Path_2490" data-name="Path 2490" d="M119.482,99.192a2.181,2.181,0,0,0,1.489.485,2.482,2.482,0,0,0-.982-1.347,2,2,0,0,0-1.49-.485,2.4,2.4,0,0,0,.983,1.347" transform="translate(-88.457 -73.029)" fill="#fff"/>
    <path id="Path_2491" data-name="Path 2491" d="M111.92,103a2.184,2.184,0,0,0-1.445.71,1.42,1.42,0,0,0,.3.18,1.42,1.42,0,0,1-.3-.18,2.245,2.245,0,0,1,1.445-.71" transform="translate(-82.467 -76.888)" fill="#fff"/>
    <path id="Path_2492" data-name="Path 2492" d="M116.575,105.01a2.184,2.184,0,0,0,1.445-.71,2.245,2.245,0,0,1-1.445.71" transform="translate(-87.021 -77.858)" fill="#fff"/>
    <path id="Path_2493" data-name="Path 2493" d="M110.475,103.646a1.419,1.419,0,0,0,.3.18,2.39,2.39,0,0,0,1.244.15,2.245,2.245,0,0,0,1.445-.71,2.115,2.115,0,0,0-1.546-.33,2.245,2.245,0,0,0-1.445.71" transform="translate(-82.467 -76.824)" fill="#fff"/>
    <path id="Path_2494" data-name="Path 2494" d="M111.416,88.3a2.74,2.74,0,0,0,.254,1.724,2.927,2.927,0,0,1-.254-1.724" transform="translate(-83.13 -65.914)" fill="#fff"/>
    <path id="Path_2495" data-name="Path 2495" d="M112.313,88.941a1.945,1.945,0,0,0-.738-.641,2.171,2.171,0,0,1,.738.641" transform="translate(-83.289 -65.914)" fill="#fff"/>
    <path id="Path_2496" data-name="Path 2496" d="M116.975,99.868c0-.014,0-.03.007-.045C116.98,99.838,116.978,99.854,116.975,99.868Z" transform="translate(-87.32 -74.516)" fill="#fff"/>
    <path id="Path_2497" data-name="Path 2497" d="M112.539,89.542a3.376,3.376,0,0,0-.352-.6,2.165,2.165,0,0,0-.738-.641,2.927,2.927,0,0,0,.254,1.724,2.594,2.594,0,0,0,1.115,1.242c0-.014,0-.03.007-.045a2.805,2.805,0,0,0-.286-1.679" transform="translate(-83.162 -65.914)" fill="#fff"/>
    <path id="Path_2498" data-name="Path 2498" d="M110.249,51.651a2.279,2.279,0,0,0,1.242-1.065,2.941,2.941,0,0,0,.465-1.5,2.962,2.962,0,0,1-.465,1.474,2.366,2.366,0,0,1-1.242,1.065c-.006-.056-.008-.115-.009-.174a1.765,1.765,0,0,0,.009.2" transform="translate(-82.292 -36.643)" fill="#fff"/>
    <path id="Path_2499" data-name="Path 2499" d="M111.491,50.048a2.962,2.962,0,0,0,.465-1.474c0-.06,0-.118-.009-.174a2.279,2.279,0,0,0-1.242,1.065,2.963,2.963,0,0,0-.465,1.474c0,.059,0,.118.009.174a2.366,2.366,0,0,0,1.242-1.065" transform="translate(-82.292 -36.13)" fill="#fff"/>
    <path id="Path_2500" data-name="Path 2500" d="M112.661,59.2a2.515,2.515,0,0,1-.786,1.318,2.223,2.223,0,0,0,.786-1.318" transform="translate(-83.513 -44.192)" fill="#fff"/>
    <path id="Path_2501" data-name="Path 2501" d="M107.993,64.4a2.156,2.156,0,0,1-1.318.583,1.9,1.9,0,0,0,1.318-.583" transform="translate(-79.631 -48.073)" fill="#fff"/>
    <path id="Path_2502" data-name="Path 2502" d="M107.461,61.5a2.425,2.425,0,0,0-.786,1.318,2.516,2.516,0,0,1,.786-1.318" transform="translate(-79.631 -45.909)" fill="#fff"/>
    <path id="Path_2503" data-name="Path 2503" d="M111.093,59.194a1.9,1.9,0,0,0-1.318.583,1.946,1.946,0,0,1,1.318-.583" transform="translate(-81.945 -44.185)" fill="#fff"/>
    <path id="Path_2504" data-name="Path 2504" d="M107.993,60.512a2.517,2.517,0,0,0,.786-1.318h0a1.946,1.946,0,0,0-1.318.583,2.516,2.516,0,0,0-.786,1.318,2.156,2.156,0,0,0,1.318-.583" transform="translate(-79.631 -44.185)" fill="#fff"/>
    <path id="Path_2505" data-name="Path 2505" d="M104.872,68.265a2.175,2.175,0,0,1,1.065-1.039,2.313,2.313,0,0,1-.1.913,1.989,1.989,0,0,0,.1-.939,2.294,2.294,0,0,0-1.065,1.039,2.429,2.429,0,0,0-.36,1.475,2.645,2.645,0,0,1,.36-1.449" transform="translate(-78.005 -50.164)" fill="#fff"/>
    <path id="Path_2506" data-name="Path 2506" d="M105.608,68.8a3.126,3.126,0,0,0,.259-.583,2.318,2.318,0,0,0,.1-.913,2.175,2.175,0,0,0-1.065,1.039,2.642,2.642,0,0,0-.36,1.449c0,.015,0,.031.005.046a2.175,2.175,0,0,0,1.065-1.039" transform="translate(-78.031 -50.238)" fill="#fff"/>
    <path id="Path_2507" data-name="Path 2507" d="M98.583,75.223A2.775,2.775,0,0,1,98,73.606l-.025-.006a2.815,2.815,0,0,0,.608,1.623" transform="translate(-73.136 -54.941)" fill="#fff"/>
    <path id="Path_2508" data-name="Path 2508" d="M103.175,77.3a2.649,2.649,0,0,1,.608,1.623,2.5,2.5,0,0,0-.608-1.623" transform="translate(-77.018 -57.703)" fill="#fff"/>
    <path id="Path_2509" data-name="Path 2509" d="M99.972,76.179a2.649,2.649,0,0,0-.608-1.623,2.326,2.326,0,0,0-1.293-.932,2.776,2.776,0,0,0,.583,1.616,2.3,2.3,0,0,0,1.318.938" transform="translate(-73.206 -54.96)" fill="#fff"/>
    <path id="Path_2510" data-name="Path 2510" d="M110.343,85.385a2.519,2.519,0,0,1-.267,1.221,2.439,2.439,0,0,0,.267-1.221" transform="translate(-82.17 -63.738)" fill="#fff"/>
    <path id="Path_2511" data-name="Path 2511" d="M108.889,78.806c0-.011,0-.022,0-.034a2.679,2.679,0,0,0-.71-1.572,2.758,2.758,0,0,1,.71,1.572c0,.011,0,.022,0,.034" transform="translate(-80.751 -57.628)" fill="#fff"/>
    <path id="Path_2512" data-name="Path 2512" d="M108.1,78.772a2.758,2.758,0,0,0-.71-1.572,2.816,2.816,0,0,0-.228,1.724c.013.089.028.175.046.259a3.378,3.378,0,0,0,.136.47,2.187,2.187,0,0,0,.528.843,2.513,2.513,0,0,0,.267-1.221,3.61,3.61,0,0,0-.035-.47c0-.011,0-.022,0-.034" transform="translate(-79.963 -57.628)" fill="#fff"/>
    <path id="Path_2513" data-name="Path 2513" d="M105.366,55.555c0-.083,0-.168,0-.255,0,.086,0,.171,0,.255" transform="translate(-78.652 -41.28)" fill="#fff"/>
    <path id="Path_2514" data-name="Path 2514" d="M107.955,50.5a2.776,2.776,0,0,0-.38-1.7,2.964,2.964,0,0,1,.38,1.7" transform="translate(-80.303 -36.428)" fill="#fff"/>
    <path id="Path_2515" data-name="Path 2515" d="M106.305,50.5a2.964,2.964,0,0,0-.38-1.7,2.712,2.712,0,0,0-.558,1.648c0,.086,0,.171,0,.255a2.844,2.844,0,0,0,.382,1.444,2.712,2.712,0,0,0,.558-1.648" transform="translate(-78.653 -36.428)" fill="#fff"/>
    <path id="Path_2516" data-name="Path 2516" d="M102.121,56.825a2.6,2.6,0,0,1,.71,1.546,4.065,4.065,0,0,1,.043.5,4.06,4.06,0,0,0-.043-.523,2.675,2.675,0,0,0-.71-1.546,2.647,2.647,0,0,0-.216,1.634,2.747,2.747,0,0,1,.216-1.609" transform="translate(-76.04 -42.4)" fill="#fff"/>
    <path id="Path_2517" data-name="Path 2517" d="M102.153,56.9a2.747,2.747,0,0,0-.216,1.609c0,.03.008.06.013.09a2.675,2.675,0,0,0,.71,1.546,2.356,2.356,0,0,0,.246-1.2,4.065,4.065,0,0,0-.043-.5,2.6,2.6,0,0,0-.71-1.546" transform="translate(-76.072 -42.475)" fill="#fff"/>
    <path id="Path_2518" data-name="Path 2518" d="M99.26,64.517a2.821,2.821,0,0,1,.306,1.713l.024.011a2.976,2.976,0,0,0-.3-1.724A2.309,2.309,0,0,0,98.17,63.3s0,.008,0,.012a2.556,2.556,0,0,1,1.092,1.205" transform="translate(-73.281 -47.252)" fill="#fff"/>
    <path id="Path_2519" data-name="Path 2519" d="M98.357,65.058a2.335,2.335,0,0,0,1.092,1.206,2.821,2.821,0,0,0-.306-1.713,2.559,2.559,0,0,0-1.092-1.205,2.6,2.6,0,0,0,.306,1.713" transform="translate(-73.164 -47.286)" fill="#fff"/>
    <path id="Path_2520" data-name="Path 2520" d="M101.375,87.3a2.043,2.043,0,0,0,1.521.38,2.3,2.3,0,0,1-1.521-.38" transform="translate(-75.674 -65.168)" fill="#fff"/>
    <path id="Path_2521" data-name="Path 2521" d="M99.761,83.774A2.532,2.532,0,0,0,98.7,82.481a2.043,2.043,0,0,0-1.521-.38,2.412,2.412,0,0,0,1.065,1.293,2.3,2.3,0,0,0,1.521.38" transform="translate(-72.539 -61.261)" fill="#fff"/>
    <path id="Path_2522" data-name="Path 2522" d="M103.637,91.708a2.284,2.284,0,0,1-1.172-.413A2.412,2.412,0,0,1,101.4,90a1.24,1.24,0,0,1,.316-.033,1.253,1.253,0,0,0-.341.033,2.6,2.6,0,0,0,1.039,1.293,2.45,2.45,0,0,0,1.223.413" transform="translate(-75.674 -67.159)" fill="#fff"/>
    <path id="Path_2523" data-name="Path 2523" d="M102.54,91.3a2.286,2.286,0,0,0,1.172.413,1.241,1.241,0,0,0,.324-.033,2.532,2.532,0,0,0-1.065-1.293,2.331,2.331,0,0,0-1.18-.413,1.239,1.239,0,0,0-.316.033A2.412,2.412,0,0,0,102.54,91.3" transform="translate(-75.749 -67.161)" fill="#fff"/>
    <path id="Path_2524" data-name="Path 2524" d="M106.116,99.764a2.6,2.6,0,0,1-.446-.053,2.174,2.174,0,0,1-1.394-.811,2.177,2.177,0,0,0,1.369.811,2.768,2.768,0,0,0,.472.053" transform="translate(-77.839 -73.827)" fill="#fff"/>
    <path id="Path_2525" data-name="Path 2525" d="M106.95,97.811a2.288,2.288,0,0,1,.42-.025,2.288,2.288,0,0,0-.42.025" transform="translate(-79.836 -72.995)" fill="#fff"/>
    <path id="Path_2526" data-name="Path 2526" d="M105.669,98.879a2.554,2.554,0,0,0,.446.053,1.832,1.832,0,0,0,1.1-.281,2.242,2.242,0,0,0-1.394-.811,2.576,2.576,0,0,0-.448-.053,2.288,2.288,0,0,0-.42.025,1.588,1.588,0,0,0-.678.257,2.174,2.174,0,0,0,1.394.811" transform="translate(-77.839 -72.994)" fill="#fff"/>
    <path id="Path_2527" data-name="Path 2527" d="M183.71,317.169V313.9a13.385,13.385,0,0,1,.127-1.572V312.3l-.1-.1h-.025a4.557,4.557,0,0,1-.558.152l-1.014.2c-.279.051-.431.076-.684.1H181.4v.025a2.59,2.59,0,0,1-.2.532l-.025.051.127.1h.025a2.627,2.627,0,0,1,.33-.1l.482-.1a2.108,2.108,0,0,1,.33-.051c.279,0,.355.1.355.938v3.042a10.806,10.806,0,0,1-.127,1.623v.076h.076a4.708,4.708,0,0,1,.558-.025c.228,0,.431.025.532.025l.051-.025-.025-.076a4.685,4.685,0,0,1-.177-1.521" transform="translate(-135.244 -233.051)" fill="#fff"/>
    <path id="Path_2528" data-name="Path 2528" d="M218.459,313.259a5.083,5.083,0,0,1-.1-.608V312.6h-.051a6.182,6.182,0,0,1-.71.025H215.24a7.128,7.128,0,0,1-.761-.025h-.051v.051a6.9,6.9,0,0,1-.228,1.014l-.025.051.177.076.025-.025a1.8,1.8,0,0,1,1.09-.279h2.053l-3.27,5.577.076.177h.025c.431-.051,1.192-.051,1.192-.051h.051v-.051a8.922,8.922,0,0,1,1.217-3.27,14.99,14.99,0,0,1,1.623-2.561l.025-.025Z" transform="translate(-159.877 -233.35)" fill="#fff"/>
    <path id="Path_2529" data-name="Path 2529" d="M198.189,314.744c.608-.355,1.192-.761,1.192-1.6a1.616,1.616,0,0,0-1.775-1.546,1.8,1.8,0,0,0-1.9,1.724,1.838,1.838,0,0,0,1.09,1.6c-.887.507-1.42,1.014-1.42,1.876a1.782,1.782,0,0,0,1.977,1.724,2.027,2.027,0,0,0,2.231-1.927,2.142,2.142,0,0,0-1.394-1.851m-1.648-1.6a1.04,1.04,0,0,1,1.065-1.065,1.052,1.052,0,0,1,1.09,1.09c0,.685-.507,1.039-1.014,1.344-.583-.355-1.141-.71-1.141-1.369m.913,4.893a1.232,1.232,0,0,1-1.293-1.268A1.83,1.83,0,0,1,197.4,315.2c.862.482,1.394.862,1.394,1.572a1.29,1.29,0,0,1-1.344,1.268" transform="translate(-145.844 -232.604)" fill="#fff"/>
    <path id="Path_2530" data-name="Path 2530" d="M233.789,315.244c.608-.355,1.192-.761,1.192-1.6a1.616,1.616,0,0,0-1.775-1.546,1.8,1.8,0,0,0-1.9,1.724,1.838,1.838,0,0,0,1.09,1.6c-.887.507-1.42,1.014-1.42,1.876a1.782,1.782,0,0,0,1.977,1.724,2.027,2.027,0,0,0,2.231-1.927,2.173,2.173,0,0,0-1.394-1.851m-1.572-1.6a1.04,1.04,0,0,1,1.065-1.065,1.052,1.052,0,0,1,1.09,1.09c0,.685-.507,1.039-1.014,1.344-.583-.33-1.141-.685-1.141-1.369m.913,4.918a1.232,1.232,0,0,1-1.293-1.268,1.83,1.83,0,0,1,1.242-1.572c.862.482,1.394.862,1.394,1.572a1.29,1.29,0,0,1-1.344,1.268" transform="translate(-172.418 -232.977)" fill="#fff"/>
    <path id="Path_2531" data-name="Path 2531" d="M113.609,254.338a3.655,3.655,0,0,1-2.814.887c-1.9,0-2.079-.532-2.079-2.13v-2.459h1.242a24.521,24.521,0,0,1,2.484.127c.1-.406.279-1.039.406-1.5,0,0,.051-.152-.127-.127a17.963,17.963,0,0,1-2.535.152h-1.445v-1.775c0-.735.051-1.572.076-1.876.431,0,.811-.025,1.115-.025a2.944,2.944,0,0,1,2.586.862c.025.051.2.3.3-.025.076-.33.33-1.217.558-2.053-1.268.025-1.749.051-2.915.051h-3.27c-.431,0-.837,0-1.42-.025a11.126,11.126,0,0,1,.355,3.346v5.451a22.967,22.967,0,0,1-.254,3.3c.786-.025,1.724-.025,3.169-.025,1.166,0,2.459,0,4.411.076.051-.1.406-1.445.532-1.876.1-.431-.152-.532-.38-.355" transform="translate(-78.959 -182.44)" fill="#fff"/>
    <path id="Path_2532" data-name="Path 2532" d="M142.368,258.3a7.427,7.427,0,0,1-.482,1.876l-1.014,2.611c-.127.33-.254.71-.38,1.09,0,0-.33-1.166-.482-1.7l-.659-2.206a11.681,11.681,0,0,1-.507-2.484c-1.115.076-2.028.127-3.169.1a8.872,8.872,0,0,1,1.546,3.093l1.141,3.524a9.989,9.989,0,0,1,.532,2.028c.33,0,.761-.025,1.115-.025.406,0,.811,0,.989.025a10.265,10.265,0,0,1,.532-1.775l1.673-3.879a12.716,12.716,0,0,1,1.546-2.865c.076-.1.1-.254-.127-.228-.279.025-.837.076-1.192.076s-.811,0-1.065-.025a7.6,7.6,0,0,1,0,.761" transform="translate(-101.279 -192.211)" fill="#fff"/>
    <path id="Path_2533" data-name="Path 2533" d="M204.912,261.813a2.562,2.562,0,0,1,.355-1.6,1.367,1.367,0,0,1,1.192-.761c.406,0,.482.127.811.507.152.177.279.025.3-.1.152-.558.406-1.5.659-2.383a1.45,1.45,0,0,0-.761-.177c-.837,0-1.394.33-2.18,1.369l-.634.837.025-2c-.685.051-1.749.076-2.408.076a12.668,12.668,0,0,1,.38,3.3v2.1a19.643,19.643,0,0,1-.2,3.144c.33,0,.862-.025,1.42-.025s1.116,0,1.394.025a8.081,8.081,0,0,1-.355-2.89Z" transform="translate(-150.994 -192.07)" fill="#fff"/>
    <path id="Path_2534" data-name="Path 2534" d="M233.826,250.663a6.033,6.033,0,0,1-1.344.127h-1.217a17.161,17.161,0,0,1,.152-2.358c.025-.177-.076-.33-.254-.228a11.9,11.9,0,0,1-2.231.989,14.662,14.662,0,0,1,.076,1.6c-.431,0-.837,0-1.065-.025-.076.3-.279,1.09-.3,1.141-.051.177.076.2.127.2a6.7,6.7,0,0,1,1.192-.1c.025.583.025,1.217.025,2.079v2.687c0,2.155.963,2.814,2.484,2.814a7.423,7.423,0,0,0,2.054-.355c.127-.456.228-.811.33-1.192.051-.228-.127-.254-.2-.2a2.138,2.138,0,0,1-1.141.33c-1.166,0-1.318-.989-1.318-2.332v-2c0-.507.025-1.217.051-1.8H232a12.57,12.57,0,0,1,1.572.076c.076-.3.279-1.014.355-1.268.051-.152-.051-.177-.1-.177" transform="translate(-169.92 -185.256)" fill="#fff"/>
    <path id="Path_2535" data-name="Path 2535" d="M299.368,260.344c0-2-.71-3.144-2.738-3.144a3.626,3.626,0,0,0-2.484,1.039l-.71.608.051-1.521c-.735.076-1.825.076-2.611.076a11.108,11.108,0,0,1,.38,3.093v2.18a22.083,22.083,0,0,1-.2,3.372c.3,0,.862-.025,1.445-.025.558,0,1.166,0,1.42.025a10.882,10.882,0,0,1-.355-3.372v-1.268c0-1.116.127-1.47.583-1.927a2.038,2.038,0,0,1,1.42-.583c1.445,0,1.521,1.192,1.521,2.231v1.546a22.087,22.087,0,0,1-.2,3.372c.3,0,.862-.025,1.445-.025.558,0,1.141.025,1.394,0a10.882,10.882,0,0,1-.355-3.372Z" transform="translate(-217.133 -191.995)" fill="#fff"/>
    <path id="Path_2536" data-name="Path 2536" d="M176.274,266.094c.152-.507.177-.659.355-1.268.076-.279-.076-.38-.228-.279a2.741,2.741,0,0,1-1.8.583c-1.851,0-2.966-1.192-3.017-3.245.583-.025,1.851-.051,2.763-.051h2.206v-.051c.3,0,.3-.735.3-.913a3.183,3.183,0,0,0-3.473-3.372c-2.484,0-4.208,1.876-4.208,4.589a4.186,4.186,0,0,0,4.386,4.513,9.363,9.363,0,0,0,2.713-.507m-3.042-7.606a1.346,1.346,0,0,1,1.369,1.42c0,.558-.3.786-1.039.811l-2,.025c.076-1.42.558-2.256,1.673-2.256" transform="translate(-126.286 -192.219)" fill="#fff"/>
    <path id="Path_2537" data-name="Path 2537" d="M258.041,257.4a4.4,4.4,0,0,0-4.766,4.741,3.976,3.976,0,0,0,4.361,4.361,4.459,4.459,0,0,0,4.741-4.792c-.025-2.738-1.572-4.31-4.335-4.31m-.228,8.113c-1.318,0-2.053-1.293-2.053-3.727,0-2.079.558-3.4,2-3.4,1.369,0,2.1,1.318,2.1,3.727,0,2.231-.71,3.4-2.054,3.4" transform="translate(-189.065 -192.144)" fill="#fff"/>
    <path id="Path_2538" data-name="Path 2538" d="M171.407,59.055c0,1.192.025,12.651.025,14.856,0,.025,0,.1-.025.1-.355-.051-.761.177-.761.786v3.3a1.073,1.073,0,0,0,.761.963s16.58,5.932,17.138,6.135c.786.3,1.5.558,2.18.811.228.1.228.228.254.634v.837s.431.025.634.025c1.6,0,1.394-.811,1.445-3.27.051-2.561.051-3.346-.685-3.524-.051-6.744.1-18.583.051-21.929a1.6,1.6,0,0,0,1.09-1.293c.1-.558-.532-1.47-2.028-2.206L182.74,36.872a1.169,1.169,0,0,0-.989-1.572,1.118,1.118,0,0,0-.887,1.572l-8.7,18.507c-1.724.938-2.1,2.1-1.749,2.89a1.453,1.453,0,0,0,.989.786m3.98,20.358c0,.076-.051.1-.127.076-.761-.254-1.141-.406-1.876-.659a.191.191,0,0,1-.127-.177V75.508c0-.076.051-.1.127-.076.761.279,1.115.431,1.876.71a.191.191,0,0,1,.127.177Zm3.144,1.115c0,.076-.051.1-.127.076-.761-.279-1.141-.406-1.876-.659a.191.191,0,0,1-.127-.177V76.7c0-.076.051-.1.127-.076.761.279,1.141.406,1.876.659a.191.191,0,0,1,.127.177Zm3.144,1.115c0,.076-.051.1-.127.076-.761-.254-1.115-.406-1.876-.659a.191.191,0,0,1-.127-.177V77.815c0-.076.051-.1.127-.076.761.254,1.141.38,1.876.634a.191.191,0,0,1,.127.177Zm3.144,1.09c0,.076-.051.1-.127.076-.761-.254-1.115-.406-1.876-.659a.191.191,0,0,1-.127-.177V78.829c0-.076.051-.1.127-.076.761.254,1.115.355,1.876.583a.191.191,0,0,1,.127.177Zm3.118,1.09c0,.076-.051.1-.127.076-.761-.254-1.115-.38-1.876-.659a.191.191,0,0,1-.127-.177V79.818c0-.076.051-.127.127-.1.761.228,1.115.33,1.876.558a.191.191,0,0,1,.127.177c.025,1.42.025,2.13,0,3.372m-9.33-7.4c-3.7-1.293-5.375-1.977-5.425-3.042-.025-.659-.1-3.448-.051-4.158l-.076-10.344c0-.3.507-.482.963-.608a35.5,35.5,0,0,1,7.732-.71,31.622,31.622,0,0,1,8.594.887,1.771,1.771,0,0,1,.532.279v.887c-.786-.1-3.727-.507-4.994-.608-.583-.051-1.344-.076-2.079-.076a.288.288,0,0,0-.076-.2.275.275,0,0,0-.228-.1,32.141,32.141,0,0,0-3.828,0,.321.321,0,0,0-.228.1.306.306,0,0,0-.076.254l.2,3.955h-.177c-.811.076-4.031.507-4.234.583-.3.076-.355.152-.33.279.051.177.279.127.507.076,1.6-.177,3.042-.279,4.284-.33l.025.634a.336.336,0,0,0,.33.33H180c1.369-.051,1.825-.051,3.194,0a.357.357,0,0,0,.355-.33l.025-.634c.507.025.786.051.786.051,2.307.2,5.3.634,6.592,1.42v.938c-.761-.152-2.687-.558-3.4-.608a6.133,6.133,0,0,0-1.47,0c-.152.025-.279.1-.254.228.025.1.152.177.33.2a10.908,10.908,0,0,1,4.792,1.318v.938a57.039,57.039,0,0,0-6.668-.963,49.813,49.813,0,0,0-7.1.279c-.3.051-.456.127-.431.279s.076.228.482.2a60.59,60.59,0,0,1,8.7.2,18.664,18.664,0,0,1,5.02,1.242l.025,1.192c-.938-.2-2.992-.583-4.031-.685-2.155-.177-3.549-.152-3.777-.152-.2,0-.3.1-.3.228,0,.152.152.152.3.177a28.292,28.292,0,0,1,3.651.33,14.837,14.837,0,0,1,4.132,1.065l.025,1.192c-.608-.076-1.851-.2-2.358-.228a7.52,7.52,0,0,0-1.5.051c-.152.025-.228.127-.2.228s.1.152.254.152,1.192.076,1.977.2a6.881,6.881,0,0,1,1.851.583v1.572a21.814,21.814,0,0,0-2.662-.507,22.284,22.284,0,0,0-3.22.025c-.076,0-.33.051-.33.279s.279.2.406.2c.684.025,1.242,0,2.434.127a14.5,14.5,0,0,1,3.372.761v1.5c0,.025-.761-.2-1.927-.38a10.059,10.059,0,0,0-1.623-.127c-.2.025-.406.051-.431.254,0,.279.482.279.659.3s.71.051,1.6.2a11.909,11.909,0,0,1,1.724.431v2.231c-3.625-1.09-8.518-2.611-12.4-4.056m8.011-15.008c.152,0,3.042.076,4.284,1.141l.025,1.192a33.91,33.91,0,0,0-4.868-.811c-.583-.051-1.166-.1-1.724-.127,0,0-.279,0-.735-.025l.177-3.346c.862.051,1.749.152,2.51.254a24.859,24.859,0,0,1,4.589.989v.862c-.507-.127-1.572-.355-2.307-.456a10.286,10.286,0,0,0-1.927-.1c-.177.025-.38.025-.38.228.025.177.2.2.355.2m-3.5-1.927-.228,4.31s-1.217-.025-2.206,0l-.254-4.284a19.854,19.854,0,0,1,2.687-.025m7.961,25.428c0,.076-.051.1-.127.076-.761-.254-1.115-.38-1.876-.659a.191.191,0,0,1-.127-.177V80.781c0-.076.051-.127.127-.1.761.228,1.115.33,1.876.558a.2.2,0,0,1,.127.2Zm-9.2-45.988c.3.634.608,1.318.963,2.053-.3.025-.913.076-1.293.152-.228.051-.254.127-.254.2s.1.177.33.177c.482,0,1.166.051,1.521.051.1.228.2.456.3.659-.254.076-.608.177-.71.228-.152.076-.33.127-.3.228,0,.1.177.127.33.127a6.967,6.967,0,0,0,1.014.051c.177.38.3.634.482,1.039.1.228-.228.279-.507.3-.33.025-1.192.025-1.6.076-.152.025-.228.1-.228.2,0,.076.127.152.279.177a13.056,13.056,0,0,1,1.673.177,6.422,6.422,0,0,1,.887.228c.1.228.228.482.33.71.051.127-.127.2-.254.2-.228.025-1.192-.051-1.724,0-.228.025-.279.076-.279.2,0,.076.051.127.254.177.406.076,1.242.1,1.521.152a4.867,4.867,0,0,1,.938.279c.177.38.3.634.456,1.014.076.152-.025.2-.127.2-.152,0-1.927.025-2.079.051-.177.025-.38.076-.406.2-.025.1.127.279.532.3a6.231,6.231,0,0,1,2.738.684c.228.456.431.913.634,1.344-.608-.051-2.687-.228-3.651-.2-.811.025-1.166,0-1.192.177s.152.254.659.3a21.048,21.048,0,0,1,4.665.761q.418.913.761,1.6a26.472,26.472,0,0,0-3.6-.431c-.406,0-.583.076-.583.254s.38.2.634.228a19.472,19.472,0,0,1,3.955.862c.076.177.127.3.177.406a44.562,44.562,0,0,0-7.4-.761,38.1,38.1,0,0,0-7.2.786c.735-1.47,5.02-10.673,7.352-15.642m-9.33,17.518a38.109,38.109,0,0,1,9.2-1.242c4.284-.051,8.391.887,9.558,1.623a.716.716,0,0,1,.33.913c-.177.3-.583.177-.989,0a25.276,25.276,0,0,0-8.9-1.318,28.122,28.122,0,0,0-8.645,1.141c-.38.1-.913.406-1.217-.152-.2-.355.051-.71.659-.963" transform="translate(-127.124 -26.351)" fill="#fff"/>
    <path id="Path_2539" data-name="Path 2539" d="M267.54,83.393a2.326,2.326,0,0,0,1.187.413,2.326,2.326,0,0,1-1.187-.413,2.532,2.532,0,0,1-1.065-1.293,1.241,1.241,0,0,1,.334-.033,1.241,1.241,0,0,0-.334.033,2.412,2.412,0,0,0,1.065,1.293" transform="translate(-198.918 -61.261)" fill="#fff"/>
    <path id="Path_2540" data-name="Path 2540" d="M273.54,84.991a2.413,2.413,0,0,0-1.064-1.29,2.534,2.534,0,0,1,1.064,1.29" transform="translate(-203.399 -62.481)" fill="#fff"/>
    <path id="Path_2541" data-name="Path 2541" d="M281.875,95.1a2.374,2.374,0,0,0,1.116,1.242,2.594,2.594,0,0,1-1.116-1.242" transform="translate(-210.414 -70.99)" fill="#fff"/>
    <path id="Path_2542" data-name="Path 2542" d="M271.875,68.1h0" transform="translate(-202.949 -50.835)" fill="#fff"/>
    <path id="Path_2543" data-name="Path 2543" d="M268.676,70.1a2.216,2.216,0,0,0,1.115,1.216,2.308,2.308,0,0,1-1.115-1.216" transform="translate(-200.561 -52.33)" fill="#fff"/>
    <path id="Path_2544" data-name="Path 2544" d="M272.732,71.2a2.466,2.466,0,0,0-.117-1.258,2.822,2.822,0,0,1,.117,1.258" transform="translate(-203.502 -52.207)" fill="#fff"/>
    <path id="Path_2545" data-name="Path 2545" d="M267.326,63.68a1.871,1.871,0,0,1,.038-.38,1.726,1.726,0,0,0-.038.38" transform="translate(-199.554 -47.252)" fill="#fff"/>
    <path id="Path_2546" data-name="Path 2546" d="M281.247,48.325c.006.056.008.115.009.174a1.763,1.763,0,0,0-.009-.2,2.391,2.391,0,0,0-1.242,1.065,2.94,2.94,0,0,0-.465,1.5,2.961,2.961,0,0,1,.465-1.474,2.279,2.279,0,0,1,1.242-1.065" transform="translate(-208.671 -36.055)" fill="#fff"/>
    <path id="Path_2547" data-name="Path 2547" d="M275.975,66.669h0s0-.007,0-.01,0,.007,0,.01" transform="translate(-206.01 -49.76)" fill="#fff"/>
    <path id="Path_2548" data-name="Path 2548" d="M271.248,62.188a2.6,2.6,0,0,0,.71,1.546,2.448,2.448,0,0,0,.246-1.227,2.355,2.355,0,0,1-.246,1.2,2.675,2.675,0,0,1-.71-1.546,3.794,3.794,0,0,1-.043-.488,3.989,3.989,0,0,0,.043.514" transform="translate(-202.449 -46.038)" fill="#fff"/>
    <path id="Path_2549" data-name="Path 2549" d="M274.675,50.448a2.712,2.712,0,0,1,.558-1.648,2.652,2.652,0,0,0-.558,1.648" transform="translate(-205.04 -36.428)" fill="#fff"/>
    <path id="Path_2550" data-name="Path 2550" d="M275.052,57.748a2.844,2.844,0,0,1-.382-1.444,2.787,2.787,0,0,0,.382,1.444" transform="translate(-205.036 -42.03)" fill="#fff"/>
    <path id="Path_2551" data-name="Path 2551" d="M276.733,55.5a2.712,2.712,0,0,1-.558,1.648,2.652,2.652,0,0,0,.558-1.648" transform="translate(-206.159 -41.43)" fill="#fff"/>
    <path id="Path_2552" data-name="Path 2552" d="M323.345,62.948a2.426,2.426,0,0,1,.421.851,2.018,2.018,0,0,0-.421-.851" transform="translate(-241.371 -46.99)" fill="#fff"/>
    <path id="Path_2553" data-name="Path 2553" d="M316.781,59.2h-.006a2.614,2.614,0,0,0,.786,1.318,1.9,1.9,0,0,0,1.318.583c0-.008,0-.017,0-.025a1.95,1.95,0,0,1-1.314-.583,2.535,2.535,0,0,1-.78-1.293" transform="translate(-236.466 -44.191)" fill="#fff"/>
    <path id="Path_2554" data-name="Path 2554" d="M309.475,103.771a1.43,1.43,0,0,1,.3-.18,1.43,1.43,0,0,0-.3.18,2.184,2.184,0,0,0,1.445.71,2.927,2.927,0,0,0,.459.02,2.927,2.927,0,0,1-.459-.02,2.245,2.245,0,0,1-1.445-.71" transform="translate(-231.017 -77.329)" fill="#fff"/>
    <path id="Path_2555" data-name="Path 2555" d="M317.02,103.71a2.184,2.184,0,0,0-1.445-.71,2.245,2.245,0,0,1,1.445.71" transform="translate(-235.571 -76.888)" fill="#fff"/>
    <path id="Path_2556" data-name="Path 2556" d="M316.017,49.465a3.581,3.581,0,0,1,.228.44,3.581,3.581,0,0,0-.228-.44,2.279,2.279,0,0,0-1.242-1.065,2.391,2.391,0,0,1,1.242,1.065" transform="translate(-234.973 -36.13)" fill="#fff"/>
    <path id="Path_2557" data-name="Path 2557" d="M320.8,55.568h0a2.525,2.525,0,0,0-.228-1.234,2.525,2.525,0,0,1,.228,1.234" transform="translate(-239.303 -40.559)" fill="#fff"/>
    <path id="Path_2558" data-name="Path 2558" d="M315.2,50.611a3.016,3.016,0,0,1-.466-1.49,2.952,2.952,0,0,0,.466,1.49" transform="translate(-234.946 -36.668)" fill="#fff"/>
    <path id="Path_2559" data-name="Path 2559" d="M315.965,90.024a2.449,2.449,0,0,1-1.09,1.242,2.346,2.346,0,0,0,1.09-1.242,2.739,2.739,0,0,0,.254-1.724,2.926,2.926,0,0,1-.254,1.724" transform="translate(-235.048 -65.914)" fill="#fff"/>
    <path id="Path_2560" data-name="Path 2560" d="M318.279,88.3a1.829,1.829,0,0,0-.644.523,1.979,1.979,0,0,1,.644-.523" transform="translate(-237.108 -65.914)" fill="#fff"/>
    <path id="Path_2561" data-name="Path 2561" d="M324.875,57a2.775,2.775,0,0,0,.38-1.7,2.964,2.964,0,0,1-.38,1.7" transform="translate(-242.513 -41.28)" fill="#fff"/>
    <path id="Path_2562" data-name="Path 2562" d="M326.122,63.682a2.738,2.738,0,0,1-.218-1.6,2.61,2.61,0,0,0,.218,1.62,2.675,2.675,0,0,0,.71-1.546,4.069,4.069,0,0,0,.043-.523,4.071,4.071,0,0,1-.043.5,2.6,2.6,0,0,1-.71,1.546" transform="translate(-243.252 -46.012)" fill="#fff"/>
    <path id="Path_2563" data-name="Path 2563" d="M321.512,67.225a2.175,2.175,0,0,1,1.065,1.039,2.646,2.646,0,0,1,.36,1.449,2.429,2.429,0,0,0-.36-1.474,2.294,2.294,0,0,0-1.065-1.039,1.988,1.988,0,0,0,.1.939,2.311,2.311,0,0,1-.1-.913" transform="translate(-239.986 -50.164)" fill="#fff"/>
    <path id="Path_2564" data-name="Path 2564" d="M332.563,68.263a3.854,3.854,0,0,1-.187.465,3.165,3.165,0,0,0,.187-.465" transform="translate(-248.112 -50.957)" fill="#fff"/>
    <path id="Path_2565" data-name="Path 2565" d="M327.975,71.318a2.31,2.31,0,0,0,1.116-1.217,2.522,2.522,0,0,1-1.116,1.217" transform="translate(-244.827 -52.329)" fill="#fff"/>
    <path id="Path_2566" data-name="Path 2566" d="M329.172,64.518v0a2.644,2.644,0,0,1,1.115-1.217,2.309,2.309,0,0,0-1.115,1.217v0" transform="translate(-245.72 -47.252)" fill="#fff"/>
    <path id="Path_2567" data-name="Path 2567" d="M323.575,77.2a2.513,2.513,0,0,1,.267,1.221,2.434,2.434,0,0,0-.267-1.221" transform="translate(-241.542 -57.628)" fill="#fff"/>
    <path id="Path_2568" data-name="Path 2568" d="M322.39,84.012a2.759,2.759,0,0,1-.707,1.567,2.68,2.68,0,0,0,.707-1.567" transform="translate(-240.13 -62.713)" fill="#fff"/>
    <path id="Path_2569" data-name="Path 2569" d="M320.888,86.6h0a2.514,2.514,0,0,1-.267-1.221,2.434,2.434,0,0,0,.267,1.221" transform="translate(-239.337 -63.738)" fill="#fff"/>
    <path id="Path_2570" data-name="Path 2570" d="M320.775,78.772a2.757,2.757,0,0,1,.71-1.572,2.679,2.679,0,0,0-.71,1.572" transform="translate(-239.452 -57.628)" fill="#fff"/>
    <path id="Path_2571" data-name="Path 2571" d="M268.693,74.538a2.191,2.191,0,0,0-1.318-.938,2.3,2.3,0,0,1,1.318.938" transform="translate(-199.59 -54.941)" fill="#fff"/>
    <path id="Path_2572" data-name="Path 2572" d="M269.775,80a2.191,2.191,0,0,0,1.318.938A2.3,2.3,0,0,1,269.775,80" transform="translate(-201.382 -59.719)" fill="#fff"/>
    <path id="Path_2573" data-name="Path 2573" d="M267.978,75.223a2.815,2.815,0,0,1-.608-1.623,2.649,2.649,0,0,0,.608,1.623" transform="translate(-199.585 -54.941)" fill="#fff"/>
    <path id="Path_2574" data-name="Path 2574" d="M273.183,78.923a2.649,2.649,0,0,0-.608-1.623,2.815,2.815,0,0,1,.608,1.623" transform="translate(-203.472 -57.703)" fill="#fff"/>
    <path id="Path_2575" data-name="Path 2575" d="M280.559,98.22a2.739,2.739,0,0,1,.606.255,2.739,2.739,0,0,0-.606-.255" transform="translate(-209.432 -73.319)" fill="#fff"/>
    <path id="Path_2576" data-name="Path 2576" d="M276.516,99.483a2.033,2.033,0,0,1-1.546.228,2.242,2.242,0,0,1-1.394-.811,2.174,2.174,0,0,0,1.394.811,2.033,2.033,0,0,0,1.546-.228,1.685,1.685,0,0,0-.564-.5,1.685,1.685,0,0,1,.564.5" transform="translate(-204.218 -73.827)" fill="#fff"/>
    <path id="Path_2577" data-name="Path 2577" d="M277.906,97.789a2.576,2.576,0,0,1,.448.053c.076.016.151.034.224.056-.073-.021-.148-.04-.224-.056a2.576,2.576,0,0,0-.448-.053" transform="translate(-207.451 -72.998)" fill="#fff"/>
    <path id="Path_2578" data-name="Path 2578" d="M304.389,98.256a2.181,2.181,0,0,1,1.489-.485c0-.007,0-.015.006-.022a2.15,2.15,0,0,0-1.521.482,2.471,2.471,0,0,0-.989,1.369l.031,0a2.4,2.4,0,0,1,.983-1.347" transform="translate(-226.464 -72.955)" fill="#fff"/>
    <path id="Path_2579" data-name="Path 2579" d="M270.7,90a1.239,1.239,0,0,1,.323-.033,1.355,1.355,0,0,0-.349.033,2.412,2.412,0,0,0,1.065,1.293,2.311,2.311,0,0,0,1.205.413,2.331,2.331,0,0,1-1.18-.413A2.532,2.532,0,0,1,270.7,90" transform="translate(-202.054 -67.159)" fill="#fff"/>
    <path id="Path_2580" data-name="Path 2580" d="M274.924,71.51a2.874,2.874,0,0,0,.259-.608,3.125,3.125,0,0,1-.259.583,2.175,2.175,0,0,1-1.065,1.039c0-.015,0-.031-.005-.046,0,.024,0,.049.005.072a2.427,2.427,0,0,0,1.065-1.039" transform="translate(-204.427 -52.927)" fill="#fff"/>
    <path id="Path_2581" data-name="Path 2581" d="M280.275,83.4a3.624,3.624,0,0,1,.039.5,3.611,3.611,0,0,0-.039-.5" transform="translate(-209.22 -62.257)" fill="#fff"/>
    <path id="Path_2582" data-name="Path 2582" d="M289.689,103.326a1.634,1.634,0,0,1,.336.15,1.634,1.634,0,0,0-.336-.15" transform="translate(-216.247 -77.131)" fill="#fff"/>
    <path id="Path_2583" data-name="Path 2583" d="M288.135,102.989a2.127,2.127,0,0,1,.394.085,2.127,2.127,0,0,0-.394-.085" transform="translate(-215.087 -76.879)" fill="#fff"/>
    <path id="Path_2584" data-name="Path 2584" d="M300.475,106.728c.152-.076.33-.152.482-.228-.177.076-.33.152-.482.228" transform="translate(-224.299 -79.5)" fill="#fff"/>
    <path id="Path_2585" data-name="Path 2585" d="M302.866,109.444l.009-.014a5.964,5.964,0,0,0-1.782-1.586l-.018.014a6.291,6.291,0,0,1,1.791,1.586" transform="translate(-224.747 -80.504)" fill="#fff"/>
    <path id="Path_2586" data-name="Path 2586" d="M294.774,107.856l-.015-.015a5.629,5.629,0,0,0-1.683,1.587l.009.014a5.946,5.946,0,0,1,1.69-1.586" transform="translate(-218.775 -80.501)" fill="#fff"/>
    <path id="Path_2587" data-name="Path 2587" d="M303.413,108.506l-.02-.016.02.016" transform="translate(-226.477 -80.986)" fill="#fff"/>
    <path id="Path_2588" data-name="Path 2588" d="M302.426,106.037a2.312,2.312,0,0,1,1.394-.051,2.265,2.265,0,0,1,1.356.869l.013-.007a2.285,2.285,0,0,0-1.369-.887,2.324,2.324,0,0,0-1.394.051H302.4a.025.025,0,0,0-.025.025h.051Z" transform="translate(-225.717 -79.037)" fill="#fff"/>
    <path id="Path_2589" data-name="Path 2589" d="M288.844,105.961a2.252,2.252,0,0,0-1.369.887l.014.007a2.293,2.293,0,0,1,1.355-.869,2.252,2.252,0,0,1,1.369.051,2.376,2.376,0,0,1,.558.228,3.145,3.145,0,0,0-.558-.254,2.241,2.241,0,0,0-1.369-.051" transform="translate(-214.594 -79.037)" fill="#fff"/>
    <path id="Path_2590" data-name="Path 2590" d="M289.3,98.256a2.482,2.482,0,0,1,.982,1.344h.007a2.558,2.558,0,0,0-.989-1.369,2.151,2.151,0,0,0-1.521-.482c0,.008,0,.016.007.025a2.041,2.041,0,0,1,1.514.482" transform="translate(-214.818 -72.955)" fill="#fff"/>
    <path id="Path_2591" data-name="Path 2591" d="M326.175,83.631c.03-.006.061-.015.091-.024-.03.007-.061.014-.091.019v.005" transform="translate(-243.483 -62.411)" fill="#fff"/>
    <path id="Path_2592" data-name="Path 2592" d="M329.265,75.223a3.086,3.086,0,0,1-.683.671,2.928,2.928,0,0,0,.708-.671A2.815,2.815,0,0,0,329.9,73.6l-.025.006a2.655,2.655,0,0,1-.608,1.616" transform="translate(-245.28 -54.941)" fill="#fff"/>
    <path id="Path_2593" data-name="Path 2593" d="M321.165,90.384a2.329,2.329,0,0,1,1.181-.413,2.4,2.4,0,0,0-1.206.413,2.532,2.532,0,0,0-1.065,1.293,1.253,1.253,0,0,0,.341.033,1.239,1.239,0,0,1-.316-.033,2.412,2.412,0,0,1,1.065-1.293" transform="translate(-238.93 -67.162)" fill="#fff"/>
    <path id="Path_2594" data-name="Path 2594" d="M332.375,70.1h0" transform="translate(-248.111 -52.326)" fill="#fff"/>
    <path id="Path_2595" data-name="Path 2595" d="M333.115,64.558a2.466,2.466,0,0,0,.117-1.258,2.818,2.818,0,0,1-.117,1.258" transform="translate(-248.664 -47.252)" fill="#fff"/>
    <path id="Path_2596" data-name="Path 2596" d="M328.166,68.106a2.809,2.809,0,0,0-.3,1.722,3,3,0,0,1,.3-1.722" transform="translate(-244.715 -50.84)" fill="#fff"/>
    <path id="Path_2597" data-name="Path 2597" d="M328.2,64.517v0a3.007,3.007,0,0,0-.3,1.722,2.522,2.522,0,0,0,1.116-1.217h0a3.833,3.833,0,0,0,.187-.465,2.822,2.822,0,0,0,.117-1.258,2.644,2.644,0,0,0-1.116,1.217" transform="translate(-244.746 -47.252)" fill="#fff"/>
    <path id="Path_2598" data-name="Path 2598" d="M323.276,72.549c0-.023,0-.048.005-.072,0,.015,0,.032-.005.047a2.175,2.175,0,0,1-1.065-1.039,3.123,3.123,0,0,1-.259-.583,2.876,2.876,0,0,0,.259.608,2.427,2.427,0,0,0,1.065,1.039" transform="translate(-240.331 -52.927)" fill="#fff"/>
    <path id="Path_2599" data-name="Path 2599" d="M322.958,69.835c0-.015,0-.031.005-.047a2.645,2.645,0,0,0-.36-1.449,2.175,2.175,0,0,0-1.065-1.039,2.313,2.313,0,0,0,.1.913,3.123,3.123,0,0,0,.259.583,2.175,2.175,0,0,0,1.065,1.039" transform="translate(-240.013 -50.238)" fill="#fff"/>
    <path id="Path_2600" data-name="Path 2600" d="M320.621,83.9a3.626,3.626,0,0,1,.039-.5,3.578,3.578,0,0,0-.039.5" transform="translate(-239.337 -62.257)" fill="#fff"/>
    <path id="Path_2601" data-name="Path 2601" d="M321.675,90.194l0,0Z" transform="translate(-240.124 -67.327)" fill="#fff"/>
    <path id="Path_2602" data-name="Path 2602" d="M324.473,82.521v0a3.612,3.612,0,0,0,.039-.5,3.62,3.62,0,0,1-.039.5v0" transform="translate(-242.213 -61.223)" fill="#fff"/>
    <path id="Path_2603" data-name="Path 2603" d="M320.889,80.494a2.757,2.757,0,0,0,.707-1.567v0a3.672,3.672,0,0,0,.039-.5,2.514,2.514,0,0,0-.267-1.221,2.757,2.757,0,0,0-.71,1.572,3.621,3.621,0,0,0-.039.5,2.512,2.512,0,0,0,.267,1.221l0,0" transform="translate(-239.336 -57.628)" fill="#fff"/>
    <path id="Path_2604" data-name="Path 2604" d="M327.055,82.647a1.816,1.816,0,0,1-.519.243,1.565,1.565,0,0,0,.519-.243" transform="translate(-243.753 -61.694)" fill="#fff"/>
    <path id="Path_2605" data-name="Path 2605" d="M328,73.606a.055.055,0,0,0,0-.006,2.191,2.191,0,0,0-1.318.938,2.815,2.815,0,0,0-.608,1.623l.026-.005a2.82,2.82,0,0,1,.608-1.617A2.327,2.327,0,0,1,328,73.606" transform="translate(-243.409 -54.941)" fill="#fff"/>
    <path id="Path_2606" data-name="Path 2606" d="M327.469,75.241a2.655,2.655,0,0,0,.608-1.616,2.326,2.326,0,0,0-1.293.932,2.82,2.82,0,0,0-.608,1.617c.03,0,.061-.011.091-.019a1.816,1.816,0,0,0,.519-.243,3.085,3.085,0,0,0,.683-.671" transform="translate(-243.484 -54.96)" fill="#fff"/>
    <path id="Path_2607" data-name="Path 2607" d="M326.016,58.475c.005-.034.008-.069.015-.1a2.676,2.676,0,0,1,.709-1.546,2.356,2.356,0,0,1,.246,1.2,2.449,2.449,0,0,0-.246-1.227,2.757,2.757,0,0,0-.709,1.546c-.007.043-.01.086-.015.129" transform="translate(-243.365 -42.4)" fill="#fff"/>
    <path id="Path_2608" data-name="Path 2608" d="M325.95,58.446c-.006.035-.01.069-.015.1a2.74,2.74,0,0,0,.218,1.6,2.6,2.6,0,0,0,.71-1.546,4.059,4.059,0,0,0,.043-.5,2.355,2.355,0,0,0-.246-1.2,2.675,2.675,0,0,0-.71,1.546" transform="translate(-243.284 -42.475)" fill="#fff"/>
    <path id="Path_2609" data-name="Path 2609" d="M323.027,48.8a2.652,2.652,0,0,0-.38,1.7,2.775,2.775,0,0,1,.38-1.7" transform="translate(-240.842 -36.428)" fill="#fff"/>
    <path id="Path_2610" data-name="Path 2610" d="M324.175,48.8a2.712,2.712,0,0,1,.558,1.648,2.652,2.652,0,0,0-.558-1.648" transform="translate(-241.99 -36.428)" fill="#fff"/>
    <path id="Path_2611" data-name="Path 2611" d="M322.649,50.5a2.652,2.652,0,0,0,.558,1.648,2.963,2.963,0,0,0,.38-1.7,2.711,2.711,0,0,0-.558-1.648,2.776,2.776,0,0,0-.38,1.7" transform="translate(-240.845 -36.428)" fill="#fff"/>
    <path id="Path_2612" data-name="Path 2612" d="M325.022,66.381c0-.024-.012-.05-.018-.075,0,.025.01.05.013.075h0" transform="translate(-242.609 -49.496)" fill="#fff"/>
    <path id="Path_2613" data-name="Path 2613" d="M316.781,59.119a1.905,1.905,0,0,1,1.312.583,2.948,2.948,0,0,1,.347.367,3,3,0,0,0-.347-.392,1.946,1.946,0,0,0-1.318-.583c0,.008,0,.017.006.025" transform="translate(-236.466 -44.111)" fill="#fff"/>
    <path id="Path_2614" data-name="Path 2614" d="M318.11,59.778a1.907,1.907,0,0,0-1.312-.583,2.534,2.534,0,0,0,.78,1.293,1.95,1.95,0,0,0,1.314.583c0-.025-.009-.05-.013-.075a2.43,2.43,0,0,0-.421-.851,2.952,2.952,0,0,0-.347-.367" transform="translate(-236.483 -44.187)" fill="#fff"/>
    <path id="Path_2615" data-name="Path 2615" d="M314.738,48.583a1.713,1.713,0,0,1,.009-.183,1.632,1.632,0,0,0-.009.183" transform="translate(-234.946 -36.13)" fill="#fff"/>
    <path id="Path_2616" data-name="Path 2616" d="M316.575,55a2.392,2.392,0,0,0,1.242,1.065A2.516,2.516,0,0,1,316.575,55" transform="translate(-236.317 -41.056)" fill="#fff"/>
    <path id="Path_2617" data-name="Path 2617" d="M316.446,51.138a2.524,2.524,0,0,0-.228-1.234,3.585,3.585,0,0,0-.228-.44,2.391,2.391,0,0,0-1.242-1.065c-.006.059-.009.12-.009.183a3.016,3.016,0,0,0,.466,1.49,2.516,2.516,0,0,0,1.242,1.065" transform="translate(-234.946 -36.13)" fill="#fff"/>
    <path id="Path_2618" data-name="Path 2618" d="M314.956,93.2a2.577,2.577,0,0,0-.254,1.724,2.74,2.74,0,0,1,.254-1.724" transform="translate(-234.875 -69.572)" fill="#fff"/>
    <path id="Path_2619" data-name="Path 2619" d="M315.875,91.081a3.273,3.273,0,0,1,.446-.719,2.96,2.96,0,0,0-.446.719" transform="translate(-235.795 -67.454)" fill="#fff"/>
    <path id="Path_2620" data-name="Path 2620" d="M314.716,91.266a2.449,2.449,0,0,0,1.09-1.242,2.926,2.926,0,0,0,.254-1.724,1.979,1.979,0,0,0-.644.523,3.272,3.272,0,0,0-.446.719,2.74,2.74,0,0,0-.254,1.724" transform="translate(-234.889 -65.914)" fill="#fff"/>
    <path id="Path_2621" data-name="Path 2621" d="M317.93,106.184a2,2,0,0,1-.945.252,2,2,0,0,0,.945-.252" transform="translate(-236.623 -79.264)" fill="#fff"/>
    <path id="Path_2622" data-name="Path 2622" d="M309.475,103.266a2.245,2.245,0,0,0,1.445.71,2.927,2.927,0,0,0,.459.02,2,2,0,0,0,.945-.252,1.279,1.279,0,0,0,.142-.1,2.245,2.245,0,0,0-1.445-.71,2.39,2.39,0,0,0-1.244.15,1.431,1.431,0,0,0-.3.18" transform="translate(-231.017 -76.824)" fill="#fff"/>
    <path id="Path_2623" data-name="Path 2623" d="M304.971,99.235a2.179,2.179,0,0,1-1.49.485c0,.007,0,.015-.006.022A2.15,2.15,0,0,0,305,99.26a2.558,2.558,0,0,0,.989-1.369l-.032,0a2.482,2.482,0,0,1-.982,1.347" transform="translate(-226.538 -73.072)" fill="#fff"/>
    <path id="Path_2624" data-name="Path 2624" d="M304.482,98.336a2.4,2.4,0,0,0-.983,1.347,2.179,2.179,0,0,0,1.49-.485,2.482,2.482,0,0,0,.982-1.347,2.181,2.181,0,0,0-1.489.485" transform="translate(-226.556 -73.035)" fill="#fff"/>
    <path id="Path_2625" data-name="Path 2625" d="M294.951,108.5a8.324,8.324,0,0,0-1.369,2.231c-.2-.325-.3-.478-.5-.8l-.009.011c.2.33.3.482.507.811a8.324,8.324,0,0,1,1.369-2.231,7.369,7.369,0,0,1,1.445,2.231c.2-.33.3-.482.507-.811l-.009-.011c-.2.319-.3.472-.5.8a7.369,7.369,0,0,0-1.445-2.231" transform="translate(-218.775 -80.993)" fill="#fff"/>
    <path id="Path_2626" data-name="Path 2626" d="M290.365,107a2.258,2.258,0,0,1-1.318.837,2.144,2.144,0,0,1-1.558-.145l-.014.018a2.135,2.135,0,0,0,1.572.152,2.387,2.387,0,0,0,1.318-.837,1.5,1.5,0,0,1,.213.188l.015-.01c-.076-.076-.152-.127-.228-.2" transform="translate(-214.594 -79.874)" fill="#fff"/>
    <path id="Path_2627" data-name="Path 2627" d="M304.435,109a2.668,2.668,0,0,1-.965-.443,2.731,2.731,0,0,0,.965.468,2.135,2.135,0,0,0,1.572-.152l-.013-.019a2.144,2.144,0,0,1-1.559.145" transform="translate(-226.534 -81.033)" fill="#fff"/>
    <path id="Path_2628" data-name="Path 2628" d="M301.3,107a1.638,1.638,0,0,0-.228.2l.018.011a1.81,1.81,0,0,0,.21-.189,2.114,2.114,0,0,0,.36.352,1.637,1.637,0,0,1-.36-.378" transform="translate(-224.747 -79.874)" fill="#fff"/>
    <path id="Path_2629" data-name="Path 2629" d="M288.884,106.061a2.294,2.294,0,0,0-1.355.869,2.144,2.144,0,0,0,1.558.145,2.259,2.259,0,0,0,1.318-.837c.076.076.152.127.228.2l-.015.01.015.015a5.944,5.944,0,0,0-1.69,1.586c.2.319.3.473.5.8a8.323,8.323,0,0,1,1.369-2.231,7.369,7.369,0,0,1,1.445,2.231c.2-.325.3-.478.5-.8a6.287,6.287,0,0,0-1.791-1.586l.018-.014-.018-.011a1.638,1.638,0,0,1,.228-.2,1.635,1.635,0,0,0,.36.378l.019.016a2.668,2.668,0,0,0,.965.443,2.144,2.144,0,0,0,1.559-.145,2.265,2.265,0,0,0-1.356-.869,2.312,2.312,0,0,0-1.394.051h-.051c-.152.076-.33.152-.482.228a2.376,2.376,0,0,0-.558-.228,2.252,2.252,0,0,0-1.369-.051" transform="translate(-214.635 -79.112)" fill="#fff"/>
    <path id="Path_2630" data-name="Path 2630" d="M288.764,99.267a2.15,2.15,0,0,0,1.521.482c0-.008-.005-.016-.007-.025a2.157,2.157,0,0,1-1.514-.482,2.4,2.4,0,0,1-.982-1.344h-.007a2.471,2.471,0,0,0,.989,1.369" transform="translate(-214.818 -73.078)" fill="#fff"/>
    <path id="Path_2631" data-name="Path 2631" d="M288.784,99.189a2.157,2.157,0,0,0,1.514.482,2.482,2.482,0,0,0-.982-1.344,2.041,2.041,0,0,0-1.514-.482,2.4,2.4,0,0,0,.982,1.344" transform="translate(-214.839 -73.026)" fill="#fff"/>
    <path id="Path_2632" data-name="Path 2632" d="M285.875,105.01a2.184,2.184,0,0,0,1.445-.71,2.245,2.245,0,0,1-1.445.71" transform="translate(-213.4 -77.858)" fill="#fff"/>
    <path id="Path_2633" data-name="Path 2633" d="M281.22,103a2.184,2.184,0,0,0-1.445.71,2.245,2.245,0,0,1,1.445-.71" transform="translate(-208.847 -76.888)" fill="#fff"/>
    <path id="Path_2634" data-name="Path 2634" d="M279.775,103.646a2.115,2.115,0,0,0,1.546.33,2.245,2.245,0,0,0,1.445-.71,1.278,1.278,0,0,0-.142-.1,1.647,1.647,0,0,0-.336-.15,2.153,2.153,0,0,0-.394-.085,2.822,2.822,0,0,0-.674,0,2.245,2.245,0,0,0-1.445.71" transform="translate(-208.847 -76.824)" fill="#fff"/>
    <path id="Path_2635" data-name="Path 2635" d="M274.172,68.265a2.175,2.175,0,0,1,1.065-1.039,2.312,2.312,0,0,1-.1.913,1.989,1.989,0,0,0,.1-.939,2.294,2.294,0,0,0-1.065,1.039,2.43,2.43,0,0,0-.36,1.475,2.642,2.642,0,0,1,.36-1.449" transform="translate(-204.384 -50.164)" fill="#fff"/>
    <path id="Path_2636" data-name="Path 2636" d="M274.908,68.8a3.125,3.125,0,0,0,.259-.583,2.313,2.313,0,0,0,.1-.913,2.175,2.175,0,0,0-1.065,1.039,2.643,2.643,0,0,0-.36,1.449c0,.015,0,.031.005.046a2.175,2.175,0,0,0,1.065-1.039" transform="translate(-204.411 -50.238)" fill="#fff"/>
    <path id="Path_2637" data-name="Path 2637" d="M267.375,73.6a2.815,2.815,0,0,0,.608,1.623,2.3,2.3,0,0,0,1.318.938,2.815,2.815,0,0,0-.608-1.623,2.3,2.3,0,0,0-1.318-.938" transform="translate(-199.59 -54.941)" fill="#fff"/>
    <path id="Path_2638" data-name="Path 2638" d="M279.642,85.385a2.513,2.513,0,0,1-.267,1.221,2.436,2.436,0,0,0,.267-1.221" transform="translate(-208.548 -63.738)" fill="#fff"/>
    <path id="Path_2639" data-name="Path 2639" d="M276.45,80.188a3.312,3.312,0,0,0-.02.713,3.312,3.312,0,0,1,.02-.713" transform="translate(-206.342 -59.859)" fill="#fff"/>
    <path id="Path_2640" data-name="Path 2640" d="M277.475,77.2a2.758,2.758,0,0,1,.71,1.572,2.679,2.679,0,0,0-.71-1.572" transform="translate(-207.13 -57.628)" fill="#fff"/>
    <path id="Path_2641" data-name="Path 2641" d="M276.431,78.67c.007.084.016.168.029.254a2.679,2.679,0,0,0,.71,1.572,2.517,2.517,0,0,0,.267-1.221,3.63,3.63,0,0,0-.039-.5,2.757,2.757,0,0,0-.71-1.572,2.171,2.171,0,0,0-.238.757,3.315,3.315,0,0,0-.019.713" transform="translate(-206.342 -57.628)" fill="#fff"/>
    <path id="Path_2642" data-name="Path 2642" d="M272.051,89.97a2.285,2.285,0,0,1,1.172.413,2.412,2.412,0,0,1,1.065,1.293,1.24,1.24,0,0,1-.316.033,1.253,1.253,0,0,0,.341-.033,2.666,2.666,0,0,0-1.065-1.293,2.317,2.317,0,0,0-1.2-.413" transform="translate(-203.081 -67.161)" fill="#fff"/>
    <path id="Path_2643" data-name="Path 2643" d="M272.271,90.382a2.284,2.284,0,0,0-1.172-.413,1.24,1.24,0,0,0-.323.033A2.532,2.532,0,0,0,271.84,91.3a2.331,2.331,0,0,0,1.18.413,1.239,1.239,0,0,0,.316-.033,2.412,2.412,0,0,0-1.065-1.293" transform="translate(-202.128 -67.16)" fill="#fff"/>
    <path id="Path_2644" data-name="Path 2644" d="M275.487,97.863a2.113,2.113,0,0,1,.4-.062,2.113,2.113,0,0,0-.4.062" transform="translate(-205.646 -73.007)" fill="#fff"/>
    <path id="Path_2645" data-name="Path 2645" d="M277.059,97.789q.105-.006.215,0-.11,0-.215,0" transform="translate(-206.819 -72.994)" fill="#fff"/>
    <path id="Path_2646" data-name="Path 2646" d="M274.673,97.786c-.073,0-.145,0-.215,0a2.113,2.113,0,0,0-.4.062,1.464,1.464,0,0,0-.485.217,2.242,2.242,0,0,0,1.394.811,2.033,2.033,0,0,0,1.546-.228,1.685,1.685,0,0,0-.564-.5,2.728,2.728,0,0,0-.606-.255c-.073-.021-.148-.04-.224-.056a2.576,2.576,0,0,0-.448-.053" transform="translate(-204.218 -72.994)" fill="#fff"/>
    <path id="Path_2647" data-name="Path 2647" d="M280.716,88.3a2.74,2.74,0,0,0,.254,1.724,2.927,2.927,0,0,1-.254-1.724" transform="translate(-209.509 -65.914)" fill="#fff"/>
    <path id="Path_2648" data-name="Path 2648" d="M280.749,88.3A2.927,2.927,0,0,0,281,90.024a2.594,2.594,0,0,0,1.116,1.242,2.927,2.927,0,0,0-.254-1.724,2.594,2.594,0,0,0-1.116-1.242" transform="translate(-209.541 -65.914)" fill="#fff"/>
    <path id="Path_2649" data-name="Path 2649" d="M279.549,51.65a2.28,2.28,0,0,0,1.242-1.065,2.94,2.94,0,0,0,.465-1.5,2.961,2.961,0,0,1-.465,1.474,2.28,2.28,0,0,1-1.242,1.065c-.006-.056-.008-.115-.009-.174a1.748,1.748,0,0,0,.009.2" transform="translate(-208.671 -36.642)" fill="#fff"/>
    <path id="Path_2650" data-name="Path 2650" d="M280.791,50.048a2.963,2.963,0,0,0,.465-1.474c0-.059,0-.118-.009-.174a2.279,2.279,0,0,0-1.242,1.065,2.96,2.96,0,0,0-.465,1.474c0,.059,0,.118.009.174a2.279,2.279,0,0,0,1.242-1.065" transform="translate(-208.671 -36.13)" fill="#fff"/>
    <path id="Path_2651" data-name="Path 2651" d="M279.075,59.777a1.946,1.946,0,0,1,1.318-.583,1.9,1.9,0,0,0-1.318.583" transform="translate(-208.324 -44.185)" fill="#fff"/>
    <path id="Path_2652" data-name="Path 2652" d="M276.768,61.5a2.429,2.429,0,0,0-.783,1.308,2.523,2.523,0,0,1,.783-1.308" transform="translate(-206.017 -45.909)" fill="#fff"/>
    <path id="Path_2653" data-name="Path 2653" d="M275.975,61.1h0a1.9,1.9,0,0,0,1.318-.583,2.224,2.224,0,0,0,.786-1.318,2.516,2.516,0,0,1-.786,1.318,2.156,2.156,0,0,1-1.318.583" transform="translate(-206.01 -44.192)" fill="#fff"/>
    <path id="Path_2654" data-name="Path 2654" d="M275.975,61.1a2.156,2.156,0,0,0,1.318-.583,2.516,2.516,0,0,0,.786-1.318,1.946,1.946,0,0,0-1.318.583,2.522,2.522,0,0,0-.783,1.308s0,.007,0,.01" transform="translate(-206.01 -44.185)" fill="#fff"/>
    <path id="Path_2655" data-name="Path 2655" d="M277.255,50.5a2.776,2.776,0,0,0-.38-1.7,2.964,2.964,0,0,1,.38,1.7" transform="translate(-206.682 -36.428)" fill="#fff"/>
    <path id="Path_2656" data-name="Path 2656" d="M274.666,55.555c0-.083,0-.168,0-.255,0,.086,0,.171,0,.255" transform="translate(-205.032 -41.28)" fill="#fff"/>
    <path id="Path_2657" data-name="Path 2657" d="M275.605,50.5a2.964,2.964,0,0,0-.38-1.7,2.711,2.711,0,0,0-.558,1.648q0,.13,0,.255a2.844,2.844,0,0,0,.382,1.444,2.712,2.712,0,0,0,.558-1.648" transform="translate(-205.032 -36.428)" fill="#fff"/>
    <path id="Path_2658" data-name="Path 2658" d="M272.158,58.372a4.069,4.069,0,0,1,.043.5,4.058,4.058,0,0,0-.043-.523,2.675,2.675,0,0,0-.71-1.546,2.5,2.5,0,0,0-.246,1.236,2.437,2.437,0,0,1,.246-1.21,2.6,2.6,0,0,1,.71,1.546" transform="translate(-202.447 -42.4)" fill="#fff"/>
    <path id="Path_2659" data-name="Path 2659" d="M271.956,60.145a2.355,2.355,0,0,0,.246-1.2,4.075,4.075,0,0,0-.043-.5,2.6,2.6,0,0,0-.71-1.546,2.438,2.438,0,0,0-.246,1.21,3.8,3.8,0,0,0,.043.488,2.675,2.675,0,0,0,.71,1.546" transform="translate(-202.447 -42.475)" fill="#fff"/>
    <path id="Path_2660" data-name="Path 2660" d="M268.591,64.517a2.308,2.308,0,0,0-1.115-1.217,2.522,2.522,0,0,1,1.115,1.217" transform="translate(-199.665 -47.252)" fill="#fff"/>
    <path id="Path_2661" data-name="Path 2661" d="M271.876,68.1a3.838,3.838,0,0,1,.187.465,3.155,3.155,0,0,0-.187-.465" transform="translate(-202.95 -50.838)" fill="#fff"/>
    <path id="Path_2662" data-name="Path 2662" d="M267.668,66.143h0a3.223,3.223,0,0,1-.342-1.344,3.056,3.056,0,0,0,.342,1.344" transform="translate(-199.554 -48.371)" fill="#fff"/>
    <path id="Path_2663" data-name="Path 2663" d="M267.668,65.024a2.308,2.308,0,0,0,1.115,1.216,2.818,2.818,0,0,0-.117-1.258,3.838,3.838,0,0,0-.187-.465h0a2.522,2.522,0,0,0-1.115-1.217,1.891,1.891,0,0,0-.038.38,3.223,3.223,0,0,0,.342,1.344h0" transform="translate(-199.554 -47.252)" fill="#fff"/>
    <path id="Path_2664" data-name="Path 2664" d="M320.022,99.711a2.538,2.538,0,0,1-.663.05,2.527,2.527,0,0,0,.663-.05,2.173,2.173,0,0,0,1.394-.811,2.242,2.242,0,0,1-1.394.811" transform="translate(-238.395 -73.827)" fill="#fff"/>
    <path id="Path_2665" data-name="Path 2665" d="M317.659,101.951a1.971,1.971,0,0,1-.578-.118,1.971,1.971,0,0,0,.578.118" transform="translate(-236.695 -76.016)" fill="#fff"/>
    <path id="Path_2666" data-name="Path 2666" d="M317.269,97.839a2.242,2.242,0,0,0-1.394.811,1.341,1.341,0,0,0,.306.16,1.981,1.981,0,0,0,.578.118,2.538,2.538,0,0,0,.663-.05,2.242,2.242,0,0,0,1.394-.811,2.033,2.033,0,0,0-1.546-.228" transform="translate(-235.795 -72.994)" fill="#fff"/>
    <path id="Path_2667" data-name="Path 2667" d="M323.352,89.969a1.228,1.228,0,0,1,.315.033,2.412,2.412,0,0,1-1.065,1.293,2.33,2.33,0,0,1-1.18.413,2.309,2.309,0,0,0,1.2-.413A2.532,2.532,0,0,0,323.692,90a1.245,1.245,0,0,0-.34-.033" transform="translate(-239.935 -67.159)" fill="#fff"/>
    <path id="Path_2668" data-name="Path 2668" d="M322.736,90a1.216,1.216,0,0,0-.315-.033,2.33,2.33,0,0,0-1.181.413,2.412,2.412,0,0,0-1.065,1.293,1.239,1.239,0,0,0,.316.033,2.331,2.331,0,0,0,1.18-.413A2.412,2.412,0,0,0,322.736,90" transform="translate(-239.004 -67.161)" fill="#fff"/>
    <path id="Path_2669" data-name="Path 2669" d="M330.375,83.493A2.412,2.412,0,0,0,331.44,82.2a2.532,2.532,0,0,1-1.065,1.293" transform="translate(-246.618 -61.361)" fill="#fff"/>
    <path id="Path_2670" data-name="Path 2670" d="M325.44,83.7a2.412,2.412,0,0,0-1.065,1.293A2.532,2.532,0,0,1,325.44,83.7" transform="translate(-242.14 -62.48)" fill="#fff"/>
    <path id="Path_2671" data-name="Path 2671" d="M325.44,82.481a2.532,2.532,0,0,0-1.065,1.293,2.043,2.043,0,0,0,1.521-.38,2.532,2.532,0,0,0,1.065-1.293,2.043,2.043,0,0,0-1.521.38" transform="translate(-242.14 -61.261)" fill="#fff"/>
    <path id="Path_2672" data-name="Path 2672" d="M268.98,82.483h0a2.325,2.325,0,0,0-1.187-.413,2.325,2.325,0,0,1,1.187.413h0" transform="translate(-199.902 -61.263)" fill="#fff"/>
    <path id="Path_2673" data-name="Path 2673" d="M275.358,88.826a1.241,1.241,0,0,0,.334-.033v0a1.251,1.251,0,0,1-.334.033" transform="translate(-205.549 -66.28)" fill="#fff"/>
    <path id="Path_2674" data-name="Path 2674" d="M267.54,83.393a2.326,2.326,0,0,0,1.187.413,1.241,1.241,0,0,0,.334-.033v0A2.534,2.534,0,0,0,268,82.481h0a2.326,2.326,0,0,0-1.187-.413,1.241,1.241,0,0,0-.334.033,2.532,2.532,0,0,0,1.065,1.293" transform="translate(-198.918 -61.261)" fill="#fff"/>
    <path id="Path_2675" data-name="Path 2675" d="M309.739,362.318l1.166-.71c.152-.076.228-.152.152-.3l-.279-.558a.025.025,0,0,1-.025-.025c-.051-.1-.127-.127-.254-.051l-.33.2-3.245,1.952c-.127.076-.152.177-.076.279l.3.507c.076.152.177.177.3.1l1.217-.735,2.155,3.625c.076.152.1.152.253.076l.761-.456c.127-.1.127-.127.051-.279Z" transform="translate(-229.025 -269.2)" fill="#fff"/>
    <path id="Path_2676" data-name="Path 2676" d="M35.837,295.947l-.406-.659c-.1-.127-.177-.177-.33-.076l-2.611,1.6v-.025l1.445-3.625a.357.357,0,0,0-.025-.355l-.355-.558c-.076-.152-.152-.2-.33-.1l-4.208,2.611c-.152.1-.152.177-.051.33l.38.608c.1.127.177.177.33.076l2.586-1.6v.025l-1.42,3.625a.406.406,0,0,0,.025.38l.355.558c.076.127.152.177.33.076l4.183-2.586c.127-.051.2-.127.1-.3" transform="translate(-21.57 -218.041)" fill="#fff"/>
    <path id="Path_2677" data-name="Path 2677" d="M363.569,317.212l-2.13-1.775c-.127-.1-.2-.051-.3.051l-.482.608c-.1.1-.127.2,0,.3l2.079,1.724c.938.761.938,1.318.507,1.851-.482.558-1.014.659-1.952-.127l-2.079-1.724c-.127-.1-.2-.076-.3.051l-.482.608c-.1.127-.127.228,0,.33l2.13,1.775c1.268,1.065,2.408,1.065,3.423-.177a2.262,2.262,0,0,0-.406-3.5" transform="translate(-267.491 -235.427)" fill="#fff"/>
    <path id="Path_2678" data-name="Path 2678" d="M330.786,356.142a.2.2,0,0,0-.279-.051l-.3.228-2.256-3.093.33-.254c.1-.076.127-.177,0-.254l-.254-.33a.167.167,0,0,0-.254-.025l-1.673,1.242a.2.2,0,0,0-.025.253l.254.33a.2.2,0,0,0,.279.051l.33-.254,2.256,3.093-.279.2a.2.2,0,0,0-.025.279l.254.33a.167.167,0,0,0,.254.025l1.622-1.192a.2.2,0,0,0,.025-.254Z" transform="translate(-243.379 -262.999)" fill="#fff"/>
    <path id="Path_2679" data-name="Path 2679" d="M376.615,292.45l-.279.456a.3.3,0,0,0,0,.38l2.155,3.194v.025l-3.9-.406a.294.294,0,0,0-.355.152l-.3.482a.21.21,0,0,0,.076.33l4.056,2.789h.025c.127.1.228.051.33-.1l.33-.532c.076-.152.1-.228-.076-.355l-2.307-1.5v-.025l3.093.355a.322.322,0,0,0,.33-.177l.152-.253a.229.229,0,0,0,0-.3l-1.775-2.51v-.025l2.307,1.344c.177.1.3.127.406-.051l.406-.659c.076-.127.051-.2,0-.228a.025.025,0,0,0-.025-.025l-4.361-2.434c-.127-.076-.2-.051-.279.076" transform="translate(-279.093 -218.22)" fill="#fff"/>
    <path id="Path_2680" data-name="Path 2680" d="M346.177,337.575l-3.549-3.5a.19.19,0,0,0-.3,0l-.406.38a.323.323,0,0,0-.1.38l1.242,3.651-3.651-1.42a.278.278,0,0,0-.38.051l-.406.38c-.1.1-.127.2,0,.355l3.169,3.727.025.025a.228.228,0,0,0,.355-.025l.482-.431c.127-.1.177-.2.025-.355l-1.825-2.053,2.89,1.166a.266.266,0,0,0,.355-.076l.2-.2a.256.256,0,0,0,.076-.3l-1.039-2.89,1.876,1.927c.152.152.253.177.406.051l.583-.532c.1-.076.1-.177,0-.279Z" transform="translate(-252.711 -249.325)" fill="#fff"/>
    <path id="Path_2681" data-name="Path 2681" d="M185.583,390.508l-.761-.1c-.177,0-.254.025-.279.2l-.38,3.042h-.025l-1.927-3.4a.376.376,0,0,0-.3-.2l-.659-.076c-.152-.025-.254,0-.279.2l-.608,4.918c-.025.177.051.228.228.254l.71.1c.152.025.228-.025.254-.2l.38-3.017h.025l1.927,3.372a.463.463,0,0,0,.33.2l.659.076c.152,0,.228-.025.279-.177l.608-4.918c.025-.152.025-.254-.177-.279" transform="translate(-134.632 -291.104)" fill="#fff"/>
    <path id="Path_2682" data-name="Path 2682" d="M152.464,384.321a3.761,3.761,0,0,0-1.369-.735,1.728,1.728,0,0,0-2.282.938,1.483,1.483,0,0,0,.507,1.622l.862.761a.631.631,0,0,1,.3.659c-.1.38-.558.431-.862.33a3.252,3.252,0,0,1-1.09-.583.232.232,0,0,0-.127-.076c-.1-.025-.152.025-.2.1l-.38.558c-.025.051-.076.1-.076.127-.025.076,0,.127.1.2a5.7,5.7,0,0,0,1.47.735,1.834,1.834,0,0,0,2.408-1.141,1.493,1.493,0,0,0-.558-1.648l-.735-.659c-.177-.127-.431-.38-.355-.608.127-.355.482-.38.786-.279a2.969,2.969,0,0,1,.938.558c.051.025.1.076.127.076.051,0,.1-.025.177-.1l.406-.507c.025-.051.051-.076.051-.1.025-.076,0-.152-.1-.228" transform="translate(-110.284 -286.26)" fill="#fff"/>
    <path id="Path_2683" data-name="Path 2683" d="M136.036,377.638l-1.927-.786a.169.169,0,0,0-.228.1l-.152.38c-.025.1-.025.2.1.254l.38.152-1.42,3.549-.33-.127a.2.2,0,0,0-.254.127l-.152.38a.206.206,0,0,0,.127.228l1.851.761a.169.169,0,0,0,.228-.1l.152-.38c.025-.1.025-.2-.1-.254l-.355-.152,1.42-3.549.38.152a.189.189,0,0,0,.254-.127l.152-.38a.206.206,0,0,0-.127-.228" transform="translate(-98.572 -281.3)" fill="#fff"/>
    <path id="Path_2684" data-name="Path 2684" d="M247.25,393.775c-.025-.127-.1-.2-.228-.177l-.38.076-.659-3.777.406-.076c.127-.025.177-.1.152-.2l-.076-.406a.189.189,0,0,0-.228-.127l-2.054.355a.157.157,0,0,0-.127.2l.076.406c.025.127.1.2.228.177l.406-.076.659,3.777-.355.051a.185.185,0,0,0-.152.228l.076.406a.189.189,0,0,0,.228.127l1.977-.355a.157.157,0,0,0,.127-.2Z" transform="translate(-182.178 -290.441)" fill="#fff"/>
    <path id="Path_2685" data-name="Path 2685" d="M210.457,392.325l-2.079-.025a.173.173,0,0,0-.177.177v.406a.18.18,0,0,0,.177.2h.406l-.051,3.828h-.355c-.127,0-.2.051-.2.2v.431a.2.2,0,0,0,.2.177l2,.025a.173.173,0,0,0,.177-.177v-.406a.18.18,0,0,0-.177-.2H210l.051-3.828h.431c.1,0,.2-.051.177-.2V392.5a.2.2,0,0,0-.2-.177" transform="translate(-155.399 -292.845)" fill="#fff"/>
    <path id="Path_2686" data-name="Path 2686" d="M226.9,393.763l-.938-.33c-.177-.076-.507-.2-.532-.456-.025-.355.33-.507.634-.532a2.688,2.688,0,0,1,1.065.177.377.377,0,0,0,.152.025q.114,0,.152-.152l.2-.634a.276.276,0,0,0,.025-.127c0-.076-.051-.127-.177-.177a3.526,3.526,0,0,0-1.546-.2,1.77,1.77,0,0,0-1.775,1.724,1.519,1.519,0,0,0,1.065,1.318l1.09.406c.228.076.482.2.507.507.051.38-.355.583-.684.608a3.417,3.417,0,0,1-1.242-.152.229.229,0,0,0-.127-.025c-.1,0-.127.076-.152.152l-.152.659a.229.229,0,0,0-.025.127c0,.076.051.127.177.152a4.609,4.609,0,0,0,1.648.152,1.694,1.694,0,0,0,1.749-1.876,1.486,1.486,0,0,0-1.115-1.344" transform="translate(-167.329 -292.127)" fill="#fff"/>
    <path id="Path_2687" data-name="Path 2687" d="M80.6,350.314l-.431-.887c-.076-.2-.228-.507-.076-.71.228-.279.558-.152.811.051a3.238,3.238,0,0,1,.659.862.553.553,0,0,0,.076.127c.051.051.1.051.2,0l.558-.33a.349.349,0,0,0,.1-.076c.051-.051.025-.127-.025-.254a3.5,3.5,0,0,0-.989-1.217,1.729,1.729,0,0,0-2.459,0,1.534,1.534,0,0,0-.127,1.7l.507,1.039a.65.65,0,0,1,.025.735c-.228.3-.659.177-.913-.025a3.637,3.637,0,0,1-.786-.963.349.349,0,0,0-.076-.1c-.076-.076-.152-.051-.228,0l-.558.355c-.025.025-.076.051-.1.076-.051.051-.051.127.025.228a5.123,5.123,0,0,0,1.09,1.242,1.8,1.8,0,0,0,2.611-.1,1.486,1.486,0,0,0,.1-1.749" transform="translate(-57.282 -259.301)" fill="#fff"/>
    <path id="Path_2688" data-name="Path 2688" d="M293.847,373.565a2.474,2.474,0,0,0-2,.279l-1.09.507c-.152.076-.177.152-.1.33l2.079,4.487c.076.177.177.177.3.127l.71-.33c.177-.1.177-.177.127-.3l-.685-1.47a4.2,4.2,0,0,0,.406-.152,1.847,1.847,0,0,0,1.115-2.611,1.892,1.892,0,0,0-.862-.862m-.685,2.611a2.72,2.72,0,0,1-.38.177l-.71-1.546.355-.152c.532-.254.938-.177,1.192.355a.8.8,0,0,1-.456,1.166" transform="translate(-216.936 -278.775)" fill="#fff"/>
    <path id="Path_2689" data-name="Path 2689" d="M119.842,369.561l.355-.482a.025.025,0,0,0,.025-.025c.051-.076.025-.152-.1-.228l-.355-.177-3.372-1.775c-.127-.076-.228-.051-.279.076l-.279.507a.2.2,0,0,0,.076.3l1.268.659-1.952,3.752c-.076.152-.076.177.076.254l.786.406c.127.076.177.051.254-.1l1.952-3.752,1.217.634c.127.076.254.076.33-.051" transform="translate(-85.978 -273.833)" fill="#fff"/>
    <path id="Path_2690" data-name="Path 2690" d="M59.059,325.91c-.1-.127-.2-.127-.3-.025l-3.625,3.372c-.177.152-.127.228-.025.355l2,2.18c.1.1.2.127.3.025l.431-.406a.19.19,0,0,0,.025-.3l-1.344-1.47,3.042-2.814c.152-.127.152-.2.025-.33Z" transform="translate(-41.065 -243.212)" fill="#fff"/>
    <path id="Path_2691" data-name="Path 2691" d="M45.262,317.079l3.042-2.332.254.33c.076.1.152.127.254.025l.33-.254a.167.167,0,0,0,.025-.254L47.9,312.921a.2.2,0,0,0-.254-.025l-.33.254a.183.183,0,0,0-.051.279l.254.33L44.5,316.09l-.228-.279a.2.2,0,0,0-.279-.025l-.33.253a.167.167,0,0,0-.025.254l1.217,1.6a.2.2,0,0,0,.254.025l.33-.254a.183.183,0,0,0,.051-.279Z" transform="translate(-32.542 -233.545)" fill="#fff"/>
    <path id="Path_2692" data-name="Path 2692" d="M272.225,381.343c-1.445.507-1.977,1.9-1.445,3.5.558,1.6,1.724,2.383,3.22,1.876,1.369-.456,2-1.825,1.445-3.5-.507-1.521-1.673-2.408-3.22-1.876m1.5,4.361c-.71.228-1.293-.152-1.673-1.318-.38-1.09-.127-1.8.507-2.028.684-.228,1.242.127,1.673,1.318.38,1.141.152,1.8-.507,2.028" transform="translate(-201.981 -284.549)" fill="#fff"/>
    <path id="Path_2693" data-name="Path 2693" d="M96.946,360.4l-.685-.431a.266.266,0,0,0-.33.025l-4.284,3.194c-.051.025-.051.051-.076.076a.109.109,0,0,0,.025.177l.735.482a.227.227,0,0,0,.3-.025l.761-.608.228.152,1.141.761.228.152-.228.938a.266.266,0,0,0,.127.355l.735.482c.076.076.152.051.3-.1a.132.132,0,0,0,.051-.1L97.1,360.7a.331.331,0,0,0-.152-.3m-1.293,1.445-.456,1.572-1.065-.71,1.242-1.014a2.493,2.493,0,0,0,.38-.3h.025c-.025.127-.076.279-.127.456" transform="translate(-68.33 -268.673)" fill="#fff"/>
  </g>
</svg>
