<svg id="imrzlight" xmlns="http://www.w3.org/2000/svg" width="310.842" height="50" viewBox="0 0 310.842 50">
  <g id="Group_1684" data-name="Group 1684">
    <path id="Path_1830" data-name="Path 1830" d="M28.912,31.75l6.96,16.675H54.634V1.508h-13.1L32.8,22.445,28.912,31.75" transform="translate(19.952 1.04)" fill="#d8006b"/>
    <rect id="Rectangle_654" data-name="Rectangle 654" width="11.428" height="46.917" transform="translate(0 2.549)" fill="#0090df"/>
    <path id="Path_1831" data-name="Path 1831" d="M108.638,1.508H75.488V10.2H95.472L75.488,39.736v8.689h33.15V39.736H88.654L108.638,10.2Z" transform="translate(52.095 1.041)" fill="#0090df"/>
    <path id="Path_1832" data-name="Path 1832" d="M79.195,23.83a14.614,14.614,0,0,0,2.473-7.954A13.355,13.355,0,0,0,77.123,5.719q-4.546-4.211-12.7-4.212H56.076L72.521,28.849a12.781,12.781,0,0,0,6.674-5.02" transform="translate(38.698 1.04)" fill="#d8006b"/>
    <path id="Path_1833" data-name="Path 1833" d="M37.022,35.249,30.908,20.6l-6.113,14.65Z" transform="translate(17.11 14.216)" fill="#fff"/>
    <path id="Path_1834" data-name="Path 1834" d="M38.415,31.75l-3.884-9.306L25.793,1.508h-13.1V48.425H31.455l6.96-16.675" transform="translate(8.76 1.04)" fill="#0090df"/>
    <path id="Path_1835" data-name="Path 1835" d="M58.536,1.508H50.062V48.425h36.69Z" transform="translate(34.548 1.041)" fill="#0090df"/>
    <rect id="Rectangle_655" data-name="Rectangle 655" width="310.842" height="50" fill="none"/>
  </g>
  <g id="Group_1687" data-name="Group 1687">
    <path id="Path_1826" data-name="Path 1826" d="M100.322,1.5V47.812h24.544V45.307H103.932V1.5Z" transform="translate(66.844 1.545)" fill="#fff"/>
    <path id="Path_1827" data-name="Path 1827" d="M132.863,7.515c8.021,0,13.369,4.477,15.373,9.96V7.981h3.008v36.3h-3.008V34.721c-2,5.547-7.42,10.093-15.373,10.093-10.161,0-17.515-7.286-17.515-18.716,0-11.5,7.354-18.583,17.515-18.583m.4,2.606c-8.756,0-14.839,5.949-14.839,15.977s6.083,16.042,14.839,16.042c8.489,0,14.973-6.216,14.973-16.042,0-9.693-6.483-15.977-14.973-15.977" transform="translate(79.602 5.186)" fill="#fff"/>
    <path id="Path_1828" data-name="Path 1828" d="M161.451,12.7c10.161,0,17.513,7.085,17.513,18.583,0,11.43-7.352,18.716-17.513,18.716-7.955,0-13.369-4.479-15.375-10.027v9.492h-3.008V0h3.008V22.727c2.14-5.615,7.487-10.026,15.375-10.026m-.468,2.606c-8.422,0-14.907,6.284-14.907,15.977,0,9.826,6.485,16.042,14.907,16.042,8.824,0,14.907-6.017,14.907-16.042s-6.083-15.977-14.907-15.977" transform="translate(98.731)" fill="#fff"/>
    <path id="Path_1829" data-name="Path 1829" d="M182.652,44.814c-7.955,0-13.57-3.61-14.237-10.294h3.074c.468,4.612,4.278,7.688,11.163,7.688,5.682,0,9.023-3.343,9.023-7.288,0-10.026-22.259-4.21-22.259-17.981,0-5.08,4.947-9.424,12.032-9.424,7.553,0,12.568,3.943,12.968,10.695h-3.008c-.267-4.546-3.61-8.155-10.026-8.155-5.282,0-8.958,3.14-8.958,6.884,0,11.231,22.058,5.282,22.193,17.981,0,5.682-5.015,9.894-11.966,9.894" transform="translate(116.224 5.186)" fill="#fff"/>
  </g>
</svg>
