<svg xmlns="http://www.w3.org/2000/svg" width="94.617" height="97.604" viewBox="0 0 94.617 97.604">
  <g id="landmarks" transform="translate(-92.726 -335.466)">
    <path id="Path_2345" data-name="Path 2345" d="M94.309,367.243h91.45a1.583,1.583,0,0,0,.844-2.923L140.879,335.7a1.593,1.593,0,0,0-1.677,0L93.465,364.32a1.583,1.583,0,0,0,.844,2.923Zm45.727-28.331,40.218,25.166H99.82Z" fill="#1996fc"/>
    <path id="Path_2346" data-name="Path 2346" d="M101.254,420.035a1.584,1.584,0,0,0,1.583,1.582h74.4a1.583,1.583,0,1,0,0-3.165h-74.4A1.585,1.585,0,0,0,101.254,420.035Z" fill="#1996fc"/>
    <path id="Path_2347" data-name="Path 2347" d="M185.76,429.9H94.315a1.583,1.583,0,1,0,0,3.165H185.76a1.583,1.583,0,1,0,0-3.165Z" fill="#1996fc"/>
    <path id="Path_2348" data-name="Path 2348" d="M141.661,414.313V371.4a1.582,1.582,0,1,0-3.164,0v42.917a1.582,1.582,0,1,0,3.164,0Z" fill="#1996fc"/>
    <path id="Path_2349" data-name="Path 2349" d="M157.795,371.4a1.583,1.583,0,1,0-3.166,0v42.917a1.583,1.583,0,1,0,3.166,0Z" fill="#1996fc"/>
    <path id="Path_2350" data-name="Path 2350" d="M173.929,371.4a1.583,1.583,0,1,0-3.166,0v42.917a1.583,1.583,0,1,0,3.166,0Z" fill="#1996fc"/>
    <path id="Path_2351" data-name="Path 2351" d="M125.388,371.4a1.583,1.583,0,1,0-3.165,0v42.917a1.583,1.583,0,1,0,3.165,0Z" fill="#1996fc"/>
    <path id="Path_2352" data-name="Path 2352" d="M109.267,371.4a1.583,1.583,0,1,0-3.166,0v42.917a1.583,1.583,0,1,0,3.166,0Z" fill="#1996fc"/>
    <path id="Path_2353" data-name="Path 2353" d="M144.313,348.6a6.045,6.045,0,1,0,1.777,4.276A6.03,6.03,0,0,0,144.313,348.6Zm-4.277,7.165a2.888,2.888,0,1,1,2.889-2.889A2.88,2.88,0,0,1,140.036,355.76Z" fill="#1996fc"/>
  </g>
</svg>
