<svg xmlns="http://www.w3.org/2000/svg" xmlns:xlink="http://www.w3.org/1999/xlink" width="339.018" height="112.309" viewBox="0 0 339.018 112.309">
  <defs>
    <clipPath id="clip-path">
      <rect id="Rectangle_754" data-name="Rectangle 754" width="339.018" height="112.309" fill="none"/>
    </clipPath>
  </defs>
  <g id="liverpool-cc" transform="translate(0)">
    <g id="Group_1956" data-name="Group 1956" transform="translate(0 0)" clip-path="url(#clip-path)">
      <path id="Path_2695" data-name="Path 2695" d="M26.213,15.875a1.45,1.45,0,0,1-1.525,1.3,1.1,1.1,0,0,1-.452-.056.727.727,0,0,0,.678-.678.8.8,0,0,0-1.582,0V16.5a.954.954,0,0,1-.169-.565.85.85,0,0,1,.226-.621,3.412,3.412,0,0,0-1.243,1.3,2.968,2.968,0,0,1,2.316-2.542,3.507,3.507,0,0,1,3.333,1.017,6.884,6.884,0,0,0-2.486-.339,1.154,1.154,0,0,1,.9,1.13M48.7,57.228a17.844,17.844,0,0,1-6.666,3.22l-.847-2.938a19.668,19.668,0,0,0,3.842-2.147ZM38.868,58.3l.734,2.6c-7.062,1.073-14.914-1.13-19.095-6.5a6.049,6.049,0,0,1-.847-1.243A18.968,18.968,0,0,0,38.868,58.3M25.535,111.348c-11.3.226-15.423.9-15.423.9,2.09-2.316,5.2-5.2,8.587-6.61a29.832,29.832,0,0,1,5.084-1.695,74.22,74.22,0,0,0,8.192-13.332,9.1,9.1,0,0,0,.96-3.559A4.514,4.514,0,0,0,31.3,83.5l-.452-.452c-.339-.339-.9-.791-1.695-1.469C27.569,80.221,24.97,78.017,20.9,74.8,10.508,66.549,9.321,57.454,9.321,53.725c0-.9.113-1.469.113-1.695.056-.791.678-7.74,7.457-13.728l-.113-.113a9.516,9.516,0,0,1-2.26-2.26,16.5,16.5,0,0,1-3.39,3.9A1.671,1.671,0,0,1,10.9,40l-.452.452c-.621.621-.734,1.017-.565,1.469a7.715,7.715,0,0,0,.9,1.356,7.672,7.672,0,0,1-1.808-.791A4.064,4.064,0,0,1,7.4,38.98a7.785,7.785,0,0,1,.847-3.729,9.837,9.837,0,0,1-3.729.791H4.463A10.573,10.573,0,0,1,0,34.913a8.44,8.44,0,0,0,2.26-.9c.9-.621,1.921-2.542,3.333-4.068a3.421,3.421,0,0,1,2.768-1.186,7.047,7.047,0,0,1,3.333,1.073,4.179,4.179,0,0,0,.847-1.751c-3.446.339-4.181-.226-4.181-.226,1.412-.734,2.712-1.469,3.842-2.147a3.355,3.355,0,0,0-.226-.452c-.056-.056-.056-.113-.113-.169a11.926,11.926,0,0,1-1.017-1.525,25.277,25.277,0,0,0-4.858,2.26s-.508-3.559,3.559-6.723a5.219,5.219,0,0,1-.113-1.582,7.766,7.766,0,0,1,.791-3.5l2.2,1.073a.2.2,0,0,0-.056.113,7.315,7.315,0,0,0-1.017,2.768,17.046,17.046,0,0,1,1.751-.847,18.331,18.331,0,0,1,5.649-1.412,6.371,6.371,0,0,1,4.068-4.858,23.259,23.259,0,0,1,8.869-1.356h1.582a15.368,15.368,0,0,0,8.474-2.2l.113-.056,3.107-2.316L43.557,8.53a31.516,31.516,0,0,1-3.672,6.949s-.96,1.356-1.582,2.034c-.226,7.514-2.034,12.429-4.8,16.5a42.258,42.258,0,0,0,6.384-5.2c5.028-4.8,11.355-12.711,17.4-25.479L58.866,0l.508,3.672a65.361,65.361,0,0,1,.452,8.869,77.707,77.707,0,0,1-1.864,16.383C77.9,22.032,90.955,13.5,94.683,10.847c.734-.508,1.13-.791,1.13-.791l3.333-2.542-1.638,3.842c-.056.056-11.016,26.156-35.986,35.534.734.056,1.525.113,2.373.113a38.594,38.594,0,0,0,5.875-.452l2.938-.452-1.977,2.26a75.129,75.129,0,0,1-15.253,13.05c-1.243.791-2.486,1.582-3.785,2.26A51.259,51.259,0,0,1,73.159,93.045l.734,3.39-2.6-2.316c-7.231-6.5-11.92-10.056-15.423-12.2a30.25,30.25,0,0,0-1.695,3.164,64.112,64.112,0,0,0-5.028,19.773,26.085,26.085,0,0,1,10.451,7.4s-7.853-.734-20.168-.847c-3.277.057-6.214-.226-13.9-.056M36.156,35.026a175.475,175.475,0,0,0,19.434-5.2A73.661,73.661,0,0,0,57.736,12.6c0-1.751-.056-3.333-.113-4.632-5.593,10.9-11.412,18.021-16.1,22.541a44.679,44.679,0,0,1-5.367,4.519M13.389,24.179h0a7.322,7.322,0,0,1,.4.678c1.3-.847,2.429-1.582,3.277-2.2a12.21,12.21,0,0,0-4.406.452c.226.339.452.678.734,1.073m-1.977,7.005a6.162,6.162,0,0,0-.621-.339,5.824,5.824,0,0,0-2.373-.734A1.983,1.983,0,0,0,6.61,30.9S5.593,32.2,5.2,32.71c0,0-.734.96-.791,1.073a3.637,3.637,0,0,1-1.13.96,5.584,5.584,0,0,0,1.243.056,8.307,8.307,0,0,0,6.892-3.616m2.373,3.446a8.769,8.769,0,0,1-.9-3.22,12.08,12.08,0,0,1-2.09,2.316,10.581,10.581,0,0,0-1.977,5.31,2.824,2.824,0,0,0,.226,1.3A8.3,8.3,0,0,1,9.6,39.6a3.058,3.058,0,0,1,.847-.734,17.128,17.128,0,0,0,1.412-1.356,9.785,9.785,0,0,0,1.921-2.768V34.63M14.8,29.546c1.3,0,3.164.734,4.519,3.446a11.346,11.346,0,0,1,1.073,2.881C25.253,31.41,26.1,28.19,26.1,26.5a3.232,3.232,0,0,0-.056-.791,65.622,65.622,0,0,1-11.751,2.26,5.145,5.145,0,0,1-.508,1.751,2.737,2.737,0,0,1,1.017-.169m2.712,7.57A8.9,8.9,0,0,1,19.49,38.7v-.169a10.57,10.57,0,0,0-1.3-4.971c-1.243-2.373-2.542-2.712-3.39-2.768-.282,0-.508.056-.678.056a7.407,7.407,0,0,0,3.39,6.271m10.225-13.5a5.775,5.775,0,0,1,.621,2.825c0,2.6-1.412,6.779-7.514,11.977.056,1.695.226,6.045-.056,5.2a19.3,19.3,0,0,0-1.3-2.881,3,3,0,0,0-.508-.621,1.5,1.5,0,0,1-.282-.339,19.641,19.641,0,0,0-6.892,12.146v.4a1.581,1.581,0,0,1-.056.339c0,.226-.056.621-.056,1.073,0,3.22.9,11.468,10.734,19.264,8.135,6.5,10.508,8.813,10.564,8.869A6.764,6.764,0,0,1,35.252,87a14.463,14.463,0,0,1-2.09,6.384,56.847,56.847,0,0,1-7.909,12.259l-.282.4-.452.056s-.96.169-1.808.4a21.4,21.4,0,0,0-3.051,1.017,17.52,17.52,0,0,0-4.124,2.147,185.5,185.5,0,0,1,19.49-.282,20.538,20.538,0,0,0-5.084-3.729l.226-.621A57.806,57.806,0,0,1,40.675,87.508c2.034-2.373,6.158-6.836,9.547-7.457l-3.955,4.519a12.533,12.533,0,0,1,1.356,6.892,23.97,23.97,0,0,1-.678,5.31,89.854,89.854,0,0,1-2.768,9.773,21.372,21.372,0,0,0-6.949,1.864,1.15,1.15,0,0,1,.339.4,6.6,6.6,0,0,1,.565.847c6.836.226,9.66.113,17.344.734a38.728,38.728,0,0,0-8.192-4.406l.056-.508c1.469-15.253,5.141-22.315,6.723-24.518-5.875-3.107-14.858-7.175-14.858-7.175,12.881,2.429,19.773,7.627,20.733,8.361a102.862,102.862,0,0,1,10,7.8,49.041,49.041,0,0,0-3.051-6.666,48.245,48.245,0,0,0-17.4-18.3c-4.915,2.429-10.169,4.068-15.253,4.011-.734,0-1.469-.056-2.147-.113a16.428,16.428,0,0,1-15.14-14.8,10.885,10.885,0,0,1-.056-1.356c1.3,7.457,7.8,12.824,14.688,13.9.226.056.508.056.734.113a4.567,4.567,0,0,0,.9.056,2.317,2.317,0,0,1,.621.056,12.287,12.287,0,0,0,1.412-.056v.056c6.271-.226,13.106-3.22,19.151-7.118A75.532,75.532,0,0,0,67.227,49.262c-1.186.113-2.26.113-3.277.113a27.917,27.917,0,0,1-7.344-.9l-3.672-1.13,3.672-1.017c20.733-5.649,32.71-23.953,37.06-31.919C85.644,19.66,64.516,31.919,34.348,37.738c0,0-2.316.452-3.164.565-6.553,1.751-9.943,7.909-9.943,7.909,1.13-4.519,5.819-8.418,7.74-9.83,3.9-4.406,6.553-8.813,7.118-17.343a14.39,14.39,0,0,1-6.045,1.921s6.44-3.729,9.6-8.982c.226-.452.508-.9.734-1.356a19.114,19.114,0,0,1-7.005,1.186H31.806a20.885,20.885,0,0,0-7.966,1.13c-1.864.847-2.712,1.921-2.768,3.785v.056l.056,1.186-1.186-.056h-.056a16.3,16.3,0,0,0-6.384.9A10.851,10.851,0,0,0,7.8,23.558c2.147-1.243,6.327-3.164,10.338-3.107.678,0,1.412.056,2.2.113l2.26.226-2.09,1.695a31.5,31.5,0,0,1-6.214,3.672c0,.056.056.169.056.226l1.808-.339c3.22-.621,8.418-1.582,10.564-2.768l.678-.339a3.761,3.761,0,0,0,.339.678M42.653,104.8c.056-.113.113-.282.226-.508.339-.9,1.3-4.237,2.147-7.683a23.031,23.031,0,0,0,.565-5.2,12.646,12.646,0,0,0-.9-4.971c-.4.4-.847.847-1.243,1.3L41.41,90.05a57.149,57.149,0,0,0-8.926,14.914,20.512,20.512,0,0,1,3.164,2.147,25.907,25.907,0,0,1,7.005-2.316M112.931.226h-2.2V112.309h2.2Zm23.219,44.8-3.051,1.3v1.017h16.779l.508-6.327H148.86l-2.26,4.519h-5.706V25.309l3.051-1.3V22.993H133.1V24.01l3.051,1.3ZM160.1,24.066c0-1.469-.734-2.147-2.768-2.147-1.977,0-2.655.678-2.655,2.147s.621,2.147,2.655,2.147,2.768-.678,2.768-2.147m-4.858,20.959-3.107,1.3v1.017h10.677V46.325l-3.051-1.3V29.094l-7.627,1.356v.96l3.107.9ZM170.5,47.68h1.977l6.892-15.875,2.09-1.186V29.546H174.4v1.017l2.373,1.186-4.011,10.395a22.639,22.639,0,0,0-.9-2.938l-2.768-7.683,2.6-.96V29.546h-9.6v1.017l2.26.96Zm15.31-9.66v.339c0,4.293,2.825,6.949,6.553,6.949A21.847,21.847,0,0,0,196.6,44.8l.226,1.356a25.454,25.454,0,0,1-7.231,1.525c-5.141,0-8.418-3.446-8.418-8.813,0-5.536,3.616-9.491,8.7-9.491,4.689,0,7.231,2.486,7.231,8.022v.621Zm6.553-1.864v-.4c0-3.672-1.3-5.028-3.051-5.028-2.2,0-3.5,2.034-3.5,5.31v.734Zm14.632-3.785a5.343,5.343,0,0,1,2.147-.452c.282,0,.508.056.791.056l.96,2.316h3.672V29.828a4.208,4.208,0,0,0-2.147-.565,7.749,7.749,0,0,0-3.559,1.073l-1.921,1.13v-2.26l-7.683,1.3v.96l3.051.9V45.025l-3.051,1.3v1.017h11.468V46.325l-3.785-1.3V32.371Zm16.27,20.846,3.785,1.186V55.42H215.636V54.4l3.051-1.186V32.371l-2.938-.9v-.96l7.457-1.3v2.2a14.542,14.542,0,0,1,5.988-2.034c3.729,0,6.553,3.559,6.553,8.248a9.787,9.787,0,0,1-10,10.056,7.721,7.721,0,0,1-2.542-.4v5.932Zm0-7.514a6.158,6.158,0,0,0,1.469.169c4.068,0,6.327-2.655,6.327-7.514,0-4.406-1.582-6.384-5.028-6.384a12.662,12.662,0,0,0-2.768.339Zm33.218-7.4c0,5.649-3.842,9.547-9.378,9.547-5.423,0-9.1-3.559-9.1-8.926,0-5.593,3.785-9.6,9.547-9.6,5.31.056,8.926,3.616,8.926,8.982M242.7,38.246c0,4.915,1.695,7.853,4.576,7.853s4.519-2.6,4.519-7.175c0-4.971-1.695-7.909-4.689-7.909-2.825,0-4.406,2.655-4.406,7.231m34.461.056c0,5.649-3.842,9.547-9.378,9.547-5.423,0-9.1-3.559-9.1-8.926,0-5.593,3.785-9.6,9.547-9.6,5.31.056,8.926,3.616,8.926,8.982m-13.784-.056c0,4.915,1.695,7.853,4.576,7.853s4.519-2.6,4.519-7.175c0-4.971-1.695-7.909-4.689-7.909-2.825,0-4.406,2.655-4.406,7.231m18.756,6.779-3.107,1.3v1.017H289.7V46.325l-3.051-1.3V21.58l-7.8,1.412V24.01l3.277.9ZM150.1,85.813a12.58,12.58,0,0,1-2.655.226c-5.875,0-9.491-3.842-9.491-10.169,0-6.384,3.333-10.847,10.169-10.847a8.81,8.81,0,0,1,1.977.169l1.808,4.971h1.582V64.176a23.278,23.278,0,0,0-7.175-1.073c-8.135,0-13.332,5.084-13.332,12.993,0,7.457,4.576,12.033,12.146,12.033a31.467,31.467,0,0,0,8.135-1.243l.452-5.988h-1.638Zm14.123-21.354c0-1.469-.734-2.147-2.768-2.147-1.977,0-2.655.678-2.655,2.147s.621,2.147,2.655,2.147c1.977,0,2.768-.678,2.768-2.147m-4.915,20.959-3.107,1.3v1.017h10.677V86.717l-3.051-1.3V69.487L156.2,70.843v.96l3.107.9Zm10-13.671V84.062c0,3.107,1.921,3.955,4.632,3.955,1.243,0,1.864-.113,5.875-1.073l-.339-1.412a20.7,20.7,0,0,1-2.373.226c-1.808,0-3.277-.452-3.277-2.655V71.747h5.649V69.939h-5.649V65.419h-1.412a10.727,10.727,0,0,1-2.2,3.333,8.186,8.186,0,0,1-3.672,1.695V71.69h2.768Zm19.773,16.1L188.067,90.5c-.96,2.429-1.977,3.446-3.559,3.729l-.734-2.2h-2.938v3.446a10.027,10.027,0,0,0,2.768.339c3.164,0,4.915-1.13,6.1-4.068L197.614,72.2l2.26-1.3V69.882h-7.231V70.9l2.486,1.186L191.287,82.65a17.719,17.719,0,0,0-1.017-3.164l-2.881-7.627,2.542-.9V69.939H180.5v1.017l2.09.9ZM227.5,85.813a12.58,12.58,0,0,1-2.655.226c-5.875,0-9.491-3.842-9.491-10.169,0-6.384,3.333-10.847,10.169-10.847a8.81,8.81,0,0,1,1.977.169l1.808,4.971h1.582V64.176a23.278,23.278,0,0,0-7.175-1.073c-8.135,0-13.332,5.084-13.332,12.993,0,7.457,4.576,12.033,12.146,12.033a31.467,31.467,0,0,0,8.135-1.243l.452-5.988h-1.638ZM252.074,78.7c0,5.649-3.842,9.547-9.378,9.547-5.423,0-9.1-3.559-9.1-8.926,0-5.593,3.785-9.6,9.547-9.6,5.31,0,8.926,3.616,8.926,8.982m-13.728-.113c0,4.915,1.695,7.853,4.576,7.853s4.519-2.6,4.519-7.175c0-4.971-1.695-7.909-4.689-7.909-2.881.056-4.406,2.655-4.406,7.231m28.642,9.66,7.457-1.412V85.813l-2.938-.847V69.543l-7.627,1.3v.96l3.051.9V85.022a11.349,11.349,0,0,1-2.768.339c-2.655,0-3.729-1.017-3.729-4.124V69.543l-7.627,1.3v.96l3.051.9v10c0,3.9,2.429,5.31,4.632,5.31,1.356,0,2.429-.339,6.44-1.921v2.147Zm17.23-15.479a13.134,13.134,0,0,1,2.994-.282c2.316,0,3.5,1.186,3.5,3.559v9.378l-2.373,1.3v1.017h10V86.717l-3.107-1.3V75.08c0-3.277-1.638-5.31-4.632-5.31-1.638,0-2.09.113-6.384,1.808V69.543L276.536,70.9v.96l3.107.847V85.361l-3.107,1.3v1.017h10.395V86.661l-2.712-1.3Zm30.055-2.26a19.756,19.756,0,0,0-5.254-.791c-5.988,0-10,3.9-10,9.6,0,5.141,3.446,8.7,8.361,8.7a25.894,25.894,0,0,0,7.005-1.412l-.226-1.412a13.091,13.091,0,0,1-3.5.452c-4.406,0-6.836-2.6-6.836-7.175,0-4.181,2.26-7.231,5.48-7.231h.282l1.695,3.333h3.051V70.5Zm10.451-6.045c0-1.469-.734-2.147-2.768-2.147-1.977,0-2.655.678-2.655,2.147s.621,2.147,2.655,2.147,2.768-.678,2.768-2.147m-4.858,20.959-3.107,1.3v1.017h10.677V86.717l-3.051-1.3V69.487L316.7,70.843v.96l3.107.9V85.418Zm11.581,0-3.107,1.3v1.017h10.677V86.717l-3.051-1.3V61.973l-7.8,1.412V64.4l3.277.9Z" fill="#fff"/>
    </g>
  </g>
</svg>
