<svg xmlns="http://www.w3.org/2000/svg" xmlns:xlink="http://www.w3.org/1999/xlink" width="881.361" height="78.624" viewBox="0 0 881.361 78.624">
  <defs>
    <clipPath id="clip-path">
      <rect id="Rectangle_751" data-name="Rectangle 751" width="881.36" height="78.624" fill="none"/>
    </clipPath>
  </defs>
  <g id="logo-hero" transform="translate(0 0)">
    <path id="Path_2377" data-name="Path 2377" d="M82.6,0,50.885,40.5,19.171,0H0V78.624H18.508v-49.5L50.885,70.5,83.261,29.121v49.5h18.512V0Z" transform="translate(0 0)" fill="#fff"/>
    <path id="Path_2378" data-name="Path 2378" d="M72.9,0,36.16,78.624h20.22L83.619,21.713l28.233,56.911h20.223L94.285,0Z" transform="translate(72.243 0)" fill="#fff"/>
    <g id="Group_1951" data-name="Group 1951" transform="translate(0.001 0)">
      <g id="Group_1950" data-name="Group 1950" clip-path="url(#clip-path)">
        <path id="Path_2379" data-name="Path 2379" d="M84.232,78.624A13.957,13.957,0,0,1,70.367,64.756V13.871a13.409,13.409,0,0,1,4.086-9.836A13.316,13.316,0,0,1,84.232,0H137.44a13.5,13.5,0,0,1,9.833,4.035,13.5,13.5,0,0,1,4.035,9.836V25.419H132.8V18.512H88.873v41.6H132.8V48.568H107.384V30.059h43.924v34.7A13.869,13.869,0,0,1,137.44,78.624Z" transform="translate(140.581 0.001)" fill="#fff"/>
        <rect id="Rectangle_750" data-name="Rectangle 750" width="18.512" height="78.624" transform="translate(305.148)" fill="#fff"/>
        <path id="Path_2380" data-name="Path 2380" d="M126.255,78.624a13.962,13.962,0,0,1-13.868-13.868V13.871a13.4,13.4,0,0,1,4.089-9.836A13.316,13.316,0,0,1,126.255,0H179.46A13.5,13.5,0,0,1,189.3,4.035a13.511,13.511,0,0,1,4.032,9.836V25.419H174.823V18.512H130.9v41.6h43.927V53.151h18.506v11.6A13.863,13.863,0,0,1,179.46,78.624Z" transform="translate(224.529 0.001)" fill="#fff"/>
        <path id="Path_2381" data-name="Path 2381" d="M157.679,78.624a13.962,13.962,0,0,1-13.868-13.868V13.871A13.4,13.4,0,0,1,147.9,4.035,13.316,13.316,0,0,1,157.679,0h53.205a13.5,13.5,0,0,1,9.836,4.035,13.511,13.511,0,0,1,4.032,9.836V25.419H206.247V18.512H162.32v41.6h43.927V48.568H180.828V30.059h43.924v34.7a13.863,13.863,0,0,1-13.868,13.868Z" transform="translate(287.309 0.001)" fill="#fff" opacity="0.5"/>
        <path id="Path_2382" data-name="Path 2382" d="M193.743,0V60.115h53.208V78.624H175.235V0Z" transform="translate(350.088 0.001)" fill="#fff" opacity="0.5"/>
        <path id="Path_2383" data-name="Path 2383" d="M259.494,0l37.791,78.624h-20.22L248.831,21.713,221.592,78.624H201.369L238.11,0Z" transform="translate(402.299 0.001)" fill="#fff" opacity="0.5"/>
        <path id="Path_2384" data-name="Path 2384" d="M316.518,64.753A13.869,13.869,0,0,1,302.65,78.621H249.442a13.957,13.957,0,0,1-13.865-13.868v-11.6h18.506v6.961H298.01V48.565l-52.378-.054-1-.222a11.511,11.511,0,0,1-9.059-11.326v-23.1a13.414,13.414,0,0,1,4.086-9.836A13.325,13.325,0,0,1,249.442,0H302.65a13.509,13.509,0,0,1,9.833,4.032,13.507,13.507,0,0,1,4.035,9.836V25.416H298.01V18.509H254.083V30l52.378.054,1,.219a11.067,11.067,0,0,1,6.52,4.035,11.2,11.2,0,0,1,2.542,7.24Z" transform="translate(470.641 0.001)" fill="#fff" opacity="0.5"/>
        <path id="Path_2385" data-name="Path 2385" d="M347.941,64.753a13.864,13.864,0,0,1-13.868,13.868H280.868A13.962,13.962,0,0,1,267,64.753v-11.6h18.509v6.961h43.924V48.565l-52.378-.054-.992-.222A11.51,11.51,0,0,1,267,36.963v-23.1a13.405,13.405,0,0,1,4.089-9.836A13.32,13.32,0,0,1,280.868,0h53.205a13.516,13.516,0,0,1,9.836,4.032,13.516,13.516,0,0,1,4.032,9.836V25.416H329.433V18.509H285.509V30l52.378.054,1,.219A11.068,11.068,0,0,1,345.4,34.31a11.2,11.2,0,0,1,2.542,7.24Z" transform="translate(533.418 0.001)" fill="#fff" opacity="0.5"/>
      </g>
    </g>
  </g>
</svg>
