<svg xmlns="http://www.w3.org/2000/svg" width="345.049" height="40.885" viewBox="0 0 345.049 40.885">
  <g id="logo" transform="translate(-63.472 -108.353)">
    <g id="Group_1760" data-name="Group 1760" transform="translate(63.472 121.906)">
      <path id="Path_2072" data-name="Path 2072" d="M126.239,119.9H95.492v6.833h27.33V140.4h-20.5v-3.415h17.082V130.15H95.492v13.665a3.4,3.4,0,0,0,.583,1.911,3.437,3.437,0,0,0,.924.922,3.4,3.4,0,0,0,1.91.583h27.33a3.416,3.416,0,0,0,3.416-3.416v-20.5A3.416,3.416,0,0,0,126.239,119.9Z" transform="translate(-57.912 -119.901)" fill="#1d1d1d"/>
      <path id="Path_2073" data-name="Path 2073" d="M127.512,123.317v20.5a3.416,3.416,0,0,0,3.416,3.416h27.33a3.416,3.416,0,0,0,3.416-3.416V130.15H137.761v6.833h17.081V140.4h-20.5V126.734h27.33V119.9H130.928A3.416,3.416,0,0,0,127.512,123.317Z" transform="translate(-52.352 -119.901)" fill="#1d1d1d"/>
      <path id="Path_2074" data-name="Path 2074" d="M202.428,126.734V119.9H171.681a3.416,3.416,0,0,0-3.416,3.416v20.5a3.416,3.416,0,0,0,3.416,3.416h30.747V140.4H175.1V126.734Z" transform="translate(-45.276 -119.901)" fill="#1d1d1d"/>
      <rect id="Rectangle_715" data-name="Rectangle 715" width="6.833" height="27.331" transform="translate(112.739 0)" fill="#1d1d1d"/>
      <path id="Path_2075" data-name="Path 2075" d="M94.219,119.9H66.888a3.417,3.417,0,0,0-3.416,3.416v23.914H70.3v-20.5h6.833v20.5h6.833v-20.5H90.8v20.5h6.832V123.317A3.416,3.416,0,0,0,94.219,119.9Z" transform="translate(-63.472 -119.901)" fill="#1d1d1d"/>
    </g>
    <g id="Group_1761" data-name="Group 1761" transform="translate(224.039 121.906)">
      <path id="Path_2076" data-name="Path 2076" d="M295.071,119.9H264.324v6.833h27.33V140.4h-20.5v-3.415h17.081V130.15H264.324v13.665a3.4,3.4,0,0,0,.583,1.911,3.437,3.437,0,0,0,.924.922,3.4,3.4,0,0,0,1.909.583h27.33a3.416,3.416,0,0,0,3.416-3.416v-20.5A3.416,3.416,0,0,0,295.071,119.9Z" transform="translate(-189.165 -119.901)" fill="#0496ff"/>
      <path id="Path_2077" data-name="Path 2077" d="M203.7,119.9a3.417,3.417,0,0,0-3.416,3.416v20.5a3.417,3.417,0,0,0,3.416,3.416h27.332a3.416,3.416,0,0,0,3.415-3.416V130.15H210.533v6.833h17.082V140.4h-20.5V126.734h27.33V119.9Z" transform="translate(-200.284 -119.901)" fill="#0496ff"/>
      <path id="Path_2078" data-name="Path 2078" d="M239.137,119.9H232.3v23.914a3.417,3.417,0,0,0,3.416,3.416h30.747V140.4h-27.33Z" transform="translate(-194.724 -119.901)" fill="#0496ff"/>
      <path id="Path_2079" data-name="Path 2079" d="M296.344,123.318v10.248a3.416,3.416,0,0,0,3.416,3.416h23.914V140.4h-27.33v6.833h30.747a3.416,3.416,0,0,0,3.416-3.416h0V133.567a3.417,3.417,0,0,0-3.416-3.416H303.177v-3.416h27.33V119.9H299.76A3.416,3.416,0,0,0,296.344,123.318Z" transform="translate(-183.605 -119.901)" fill="#0496ff"/>
      <path id="Path_2080" data-name="Path 2080" d="M362.527,126.734V119.9H331.78a3.416,3.416,0,0,0-3.416,3.416v10.248a3.416,3.416,0,0,0,3.416,3.416h23.914V140.4h-27.33v6.833h30.747a3.417,3.417,0,0,0,3.416-3.416h0V133.567a3.417,3.417,0,0,0-3.416-3.416H335.2v-3.416Z" transform="translate(-178.045 -119.901)" fill="#0496ff"/>
    </g>
    <path id="Path_2081" data-name="Path 2081" d="M163.262,108.353l-1.3,4.013h-4.233l3.425,2.489-1.3,4.014,3.413-2.481,3.413,2.481-1.3-4.014,3.425-2.489h-4.232Z" transform="translate(16.366)" fill="#0496ff"/>
  </g>
</svg>
