<svg xmlns="http://www.w3.org/2000/svg" xmlns:xlink="http://www.w3.org/1999/xlink" width="294" height="26.227" viewBox="0 0 294 26.227">
  <defs>
    <clipPath id="clip-path">
      <rect id="Rectangle_738" data-name="Rectangle 738" width="294" height="26.227" transform="translate(0 0)" fill="none"/>
    </clipPath>
  </defs>
  <g id="logo" transform="translate(0 0)">
    <path id="Path_2359" data-name="Path 2359" d="M27.553,0,16.974,13.51,6.395,0H0V26.227H6.174V9.714l10.8,13.8,10.8-13.8V26.227h6.175V0Z" fill="#fff"/>
    <path id="Path_2360" data-name="Path 2360" d="M48.416,0,36.16,26.227h6.745L51.991,7.243l9.418,18.984h6.746L55.549,0Z" fill="#fff"/>
    <g id="Group_1929" data-name="Group 1929">
      <g id="Group_1928" data-name="Group 1928" clip-path="url(#clip-path)">
        <path id="Path_2361" data-name="Path 2361" d="M74.992,26.227A4.656,4.656,0,0,1,70.367,21.6V4.627A4.473,4.473,0,0,1,71.73,1.346,4.442,4.442,0,0,1,74.992,0H92.741a4.5,4.5,0,0,1,3.28,1.346,4.5,4.5,0,0,1,1.346,3.281V8.479H91.193v-2.3H76.54V20.053H91.193V16.2H82.715V10.027H97.367V21.6a4.626,4.626,0,0,1-4.626,4.626Z" fill="#fff"/>
        <rect id="Rectangle_737" data-name="Rectangle 737" width="6.175" height="26.227" transform="translate(101.79 0)" fill="#fff"/>
        <path id="Path_2362" data-name="Path 2362" d="M117.013,26.227a4.657,4.657,0,0,1-4.626-4.626V4.627a4.47,4.47,0,0,1,1.364-3.281A4.442,4.442,0,0,1,117.013,0h17.748a4.5,4.5,0,0,1,3.281,1.346,4.507,4.507,0,0,1,1.345,3.281V8.479h-6.173v-2.3H118.561V20.053h14.653V17.73h6.173V21.6a4.624,4.624,0,0,1-4.626,4.626Z" fill="#fff"/>
        <path id="Path_2363" data-name="Path 2363" d="M148.437,26.227a4.657,4.657,0,0,1-4.626-4.626V4.627a4.47,4.47,0,0,1,1.364-3.281A4.442,4.442,0,0,1,148.437,0h17.748a4.5,4.5,0,0,1,3.281,1.346,4.507,4.507,0,0,1,1.345,3.281V8.479h-6.173v-2.3H149.985V20.053h14.653V16.2h-8.479V10.027h14.652V21.6a4.625,4.625,0,0,1-4.626,4.626Z" fill="#0496ff"/>
        <path id="Path_2364" data-name="Path 2364" d="M181.409,0V20.053h17.749v6.174H175.235V0Z" fill="#0496ff"/>
        <path id="Path_2365" data-name="Path 2365" d="M220.758,0l12.606,26.227h-6.745L217.2,7.243l-9.086,18.984h-6.746L213.625,0Z" fill="#0496ff"/>
        <path id="Path_2366" data-name="Path 2366" d="M262.577,21.6a4.626,4.626,0,0,1-4.626,4.626H240.2a4.656,4.656,0,0,1-4.625-4.626V17.73h6.173v2.322H256.4V16.2l-17.472-.018-.332-.074a3.84,3.84,0,0,1-3.022-3.778v-7.7a4.475,4.475,0,0,1,1.363-3.281A4.445,4.445,0,0,1,240.2,0h17.749a4.506,4.506,0,0,1,3.28,1.345,4.506,4.506,0,0,1,1.346,3.281V8.478H256.4v-2.3H241.75v3.834l17.472.018.332.073a3.692,3.692,0,0,1,2.175,1.346,3.736,3.736,0,0,1,.848,2.415Z" fill="#0496ff"/>
        <path id="Path_2367" data-name="Path 2367" d="M294,21.6a4.625,4.625,0,0,1-4.626,4.626H271.626A4.657,4.657,0,0,1,267,21.6V17.73h6.174v2.322h14.652V16.2l-17.472-.018-.331-.074A3.839,3.839,0,0,1,267,12.33v-7.7a4.472,4.472,0,0,1,1.364-3.281A4.443,4.443,0,0,1,271.626,0h17.748a4.509,4.509,0,0,1,3.281,1.345A4.509,4.509,0,0,1,294,4.626V8.478h-6.174v-2.3H273.174v3.834l17.472.018.332.073a3.692,3.692,0,0,1,2.174,1.346A3.736,3.736,0,0,1,294,13.86Z" fill="#0496ff"/>
      </g>
    </g>
  </g>
</svg>
