<svg xmlns="http://www.w3.org/2000/svg" xmlns:xlink="http://www.w3.org/1999/xlink" width="266.657" height="112.309" viewBox="0 0 266.657 112.309">
  <defs>
    <clipPath id="clip-path">
      <rect id="Rectangle_753" data-name="Rectangle 753" width="266.657" height="112.309" fill="none"/>
    </clipPath>
  </defs>
  <g id="premier-league" transform="translate(0)">
    <g id="Group_1954" data-name="Group 1954" transform="translate(0)" clip-path="url(#clip-path)">
      <path id="Path_2694" data-name="Path 2694" d="M205.288,74.918l.733-3.109h5.944V95.222c0,4.572-1.279,7.773-4.3,10.151a15,15,0,0,1-9.145,3.017,15.9,15.9,0,0,1-11.706-4.573l3.75-5.213a10.81,10.81,0,0,0,7.5,3.293c5.03,0,7.223-2.47,7.223-6.128V94.031a9.256,9.256,0,0,1-7.04,2.926,12.76,12.76,0,0,1,.182-25.515,8.354,8.354,0,0,1,6.856,3.475m-6.033,2.654a6.447,6.447,0,1,0,6.4,6.491,6.328,6.328,0,0,0-6.4-6.491m-38.685-40.7a5.582,5.582,0,0,0-5.762,4.3h11.338a5.535,5.535,0,0,0-5.577-4.3m.366,19.845c-7.589,0-13.169-5.212-13.169-12.8A12.688,12.688,0,0,1,160.754,30.93c5.944,0,12.072,4.48,12.072,12.8a11.7,11.7,0,0,1-.183,2.377H154.719a6.058,6.058,0,0,0,6.127,4.575,8.63,8.63,0,0,0,6.585-2.837l4.115,4.206a13.981,13.981,0,0,1-10.609,4.665m76-19.845a5.586,5.586,0,0,0-5.762,4.3h11.34a5.537,5.537,0,0,0-5.578-4.3m.367,19.845c-7.59,0-13.169-5.212-13.169-12.8A12.688,12.688,0,0,1,237.117,30.93c5.944,0,12.072,4.48,12.072,12.8a11.716,11.716,0,0,1-.182,2.377H231.08a6.063,6.063,0,0,0,6.128,4.575,8.635,8.635,0,0,0,6.585-2.837l4.114,4.206A13.984,13.984,0,0,1,237.3,56.719m17.1,20.394a5.583,5.583,0,0,0-5.761,4.3h11.34a5.541,5.541,0,0,0-5.579-4.3m.366,19.844c-7.592,0-13.169-5.212-13.169-12.8a12.688,12.688,0,0,1,12.987-12.986c5.944,0,12.073,4.48,12.073,12.8a11.468,11.468,0,0,1-.186,2.377H248.548a6.056,6.056,0,0,0,6.127,4.572,8.633,8.633,0,0,0,6.585-2.834l4.114,4.206a13.976,13.976,0,0,1-10.608,4.665M142.279,77.113a5.584,5.584,0,0,0-5.762,4.3h11.34a5.536,5.536,0,0,0-5.578-4.3m.366,19.844c-7.589,0-13.169-5.212-13.169-12.8A12.687,12.687,0,0,1,142.46,71.168c5.945,0,12.073,4.48,12.073,12.8a11.718,11.718,0,0,1-.182,2.377H136.425a6.061,6.061,0,0,0,6.129,4.572,8.639,8.639,0,0,0,6.585-2.834l4.114,4.206a13.974,13.974,0,0,1-10.608,4.665m-37.585-.64V60.011h7.223V89.459h15.73v6.859ZM132.586,56.08V31.569h5.853l.733,3.567a6.658,6.658,0,0,1,6.218-3.84,6.946,6.946,0,0,1,1.92.274v6.493a10.561,10.561,0,0,0-2.377-.275c-3.292,0-5.578,2.013-5.578,5.944V56.078h-6.769Zm119.254,0V31.569h5.852l.732,3.567a6.664,6.664,0,0,1,6.219-3.84,6.955,6.955,0,0,1,1.922.274v6.493a10.574,10.574,0,0,0-2.379-.275c-3.292,0-5.577,2.013-5.577,5.944V56.078H251.84ZM204.559,41.629c0-2.652-1.463-4.3-3.751-4.3-2.651,0-4.023,1.647-4.023,4.392V56.078h-6.768V41.629c0-2.652-1.463-4.3-3.749-4.3-2.652,0-4.024,1.647-4.024,4.392V56.078h-6.768V31.569h5.944l.733,3.2a6.437,6.437,0,0,1,6.036-3.84,7.866,7.866,0,0,1,6.86,3.659l.183.274.184-.274a8.035,8.035,0,0,1,7.134-3.659c5.212,0,8.779,3.933,8.779,9.511V56.08h-6.768V41.629Zm13.626-13.35a4.162,4.162,0,1,1,4.206-4.117,4.12,4.12,0,0,1-4.206,4.117m-3.474,3.291h6.766V56.077H214.71Zm-44.356,46a6.448,6.448,0,1,0,6.31,6.491,6.27,6.27,0,0,0-6.31-6.491m-1.372,19.385c-6.493,0-12.162-5.944-12.162-12.894,0-6.859,5.669-12.62,12.162-12.62,3.659,0,6.127,1.279,7.591,3.566l.732-3.2h5.944V96.316h-5.944l-.732-3.111a8.968,8.968,0,0,1-7.591,3.752m58.255,0c-5.4,0-11.978-2.926-11.978-12.071V71.807h6.765v12.62c0,4.206,1.923,6.035,5.213,6.035,3.017,0,5.213-2.1,5.213-6.035V71.807h6.768V84.886c0,9.145-6.676,12.071-11.981,12.071M112.283,36.966h4.208c3.659,0,6.31-2.011,6.31-5.671s-2.651-5.579-6.31-5.579h-4.208ZM105.06,56.08V18.858h11.8c7.682,0,13.444,4.572,13.444,12.438,0,7.956-5.671,12.62-13.444,12.62h-4.573V56.08ZM79.184,51.387a31.786,31.786,0,0,1-4.537,3.133l.028,6.377c1.755,1.91,3.486,3.493,4.782,6.377,2.46-4.319,1.987-10.669-.274-15.888m-2,20.876a12.047,12.047,0,0,0-2.635-5.085l-4.867.116s-6.561,5.5-10.563,5.63c0,0,2.2,4,3.321,6.091,2.2-.471,6.074-2.164,7.635-3.936a22.315,22.315,0,0,1,.837,7.074c2.19-1.237,5.208-4.6,6.272-9.889M70.916,60.745l-.009-6.354a22,22,0,0,1-6.012-3.258C58.66,52.051,51.11,58.17,51.11,58.17s2.55,4.721,5.34,9.815c4.905.669,12.133-5.376,14.465-7.24M87.543,87.2l-4.011-4.333c-1.145,11.712-7.024,21.656-17.824,28.591l-1.651-6.317c-9.167,6.46-24.9,10.65-38.414,3.193,1.679-8.352,3.169-16.815-.028-26.948C18.131,92.7,11.509,97.126,11.509,97.126c-5.057-8.283-4.6-24.9-3.094-29.791L0,69.877c0-5.583,4.12-17.429,10.09-24.083l-5.255-.821H4.829A48.656,48.656,0,0,1,20.254,27.106l.009-.005c-1.958,3.018-1.987,10.465,3.751,13.3-2.436-4.167-2.73-9.317-.185-11.984,2.545-2.69,6.826-1.767,9.56.319-.813-2.326-3.2-5.251-6.769-5.45h-.005a50.053,50.053,0,0,1,22.507-5.293c1.514,0,3.023.065,4.5.194,2.356.923,5.813,4.162,7.426,6.179a12.178,12.178,0,0,0-1.239-5.247c8.775,2.086,12.961,5.57,14.716,7.249.36,3.7,1.495,5.92,2.994,9.437-2.843-3.106-9.985-8.117-13.4-9.317,0,0-.279,3.207-1.452,4.748-6.793-4.781-10.127-5.985-10.127-5.985C45.087,26.293,40.291,29.1,37.684,31.3l2.271,1.887A16.5,16.5,0,0,0,32.543,38.3c.033.069,4.016.623,4.016.623s-.407,4.564,5.449,7.425c5.019,2.451,12.233-.59,19.025,2.067a54.011,54.011,0,0,0-7.554-7.277,18.31,18.31,0,0,0-3.023-.351,15.921,15.921,0,0,1-6.438-.66,25.047,25.047,0,0,1-3.761-1.97,15.234,15.234,0,0,1,7.72-3.835,26.46,26.46,0,0,1,7.407,3.5,6.749,6.749,0,0,1,4.446-2s-2.252,2.049-1.57,4.532a84.273,84.273,0,0,1,6.816,6.912c3.614-1.929,11.471-1.486,13.084.341-2.043-2.589-4.99-4.748-7.27-6.594A21.83,21.83,0,0,0,67.7,36.352a13.523,13.523,0,0,1,4.48,2.561,5.734,5.734,0,0,1,3.287-2.081A5.155,5.155,0,0,1,77.3,40.464a4.914,4.914,0,0,1-1.424,1.177l3.832,4.047.383-2.9c8.827,12.3,13.637,26.528,7.45,44.419M17.836,9.377a40.264,40.264,0,0,1,8.954,5.583c-.27-1.283-1.272-7.457-1.849-11.292,2.966,2.007,9.848,6.668,12.114,8.182C37.978,9.077,41.176.018,41.176.018s5.78,9.127,6.769,10.609C49.151,9.4,56.057,1.9,57.845,0c.3,4.315.7,10.484.809,11.412a37.884,37.884,0,0,1,7.422-7.406c-1.92,3.692-2.838,8.786-3.245,12.879a52.209,52.209,0,0,0-13.7-1.823A51.5,51.5,0,0,0,24.076,21.5c-1.343-3.954-3.448-8.874-6.239-12.122" fill="#fff"/>
    </g>
  </g>
</svg>
