<svg id="retailers" xmlns="http://www.w3.org/2000/svg" xmlns:xlink="http://www.w3.org/1999/xlink" width="88.535" height="88.783" viewBox="0 0 88.535 88.783">
  <defs>
    <clipPath id="clip-path">
      <rect id="Rectangle_756" data-name="Rectangle 756" width="88.535" height="88.783" fill="none"/>
    </clipPath>
  </defs>
  <g id="Group_1959" data-name="Group 1959" clip-path="url(#clip-path)">
    <path id="Path_2697" data-name="Path 2697" d="M88.51,83l-5.49-57.166a1.368,1.368,0,0,0-1.373-1.252H70.57V18.325a18.325,18.325,0,0,0-36.65,0v6.261H22.868A1.383,1.383,0,0,0,21.5,25.838L20.482,36.383A11.181,11.181,0,0,0,10.322,47.51v3.058H4.567A1.383,1.383,0,0,0,3.195,51.82L.016,84.81A3.656,3.656,0,0,0,.931,87.6,3.628,3.628,0,0,0,3.6,88.783h79.68A5.286,5.286,0,0,0,88.51,83m-51.8-64.679a15.556,15.556,0,1,1,31.111,0v6.261H36.714Zm-2.793,9.03v4.9a3.756,3.756,0,1,0,2.793,0v-4.9H67.825v4.9a3.758,3.758,0,1,0,2.745-.018V27.355h9.825l4.669,48.617H42.2L39.868,51.82A1.385,1.385,0,0,0,38.5,50.568H32.668V47.51a11.184,11.184,0,0,0-9.4-11.031l.877-9.124ZM36.3,35.711a.987.987,0,0,1-1.975,0,.987.987,0,0,1,1.975,0m32.917-.987a.987.987,0,1,1-.987.987.992.992,0,0,1,.987-.987M13.115,47.51a8.38,8.38,0,0,1,16.76,0v3.058H13.115ZM5.8,53.337h4.527v3.455a3.66,3.66,0,1,0,2.793,0V53.337h16.76v3.455a3.66,3.66,0,1,0,2.793,0V53.337h4.5L39.663,79.2H3.3Zm6.815,6.815a.891.891,0,1,1-.891-.891.889.889,0,0,1,.891.891m19.553,0a.891.891,0,1,1-.891-.891.889.889,0,0,1,.891.891M3.58,86.014a.9.9,0,0,1-.626-.289.825.825,0,0,1-.217-.65l.3-3.082h36.9l.3,3.082a.864.864,0,0,1-.217.65.755.755,0,0,1-.421.265H37.725a1.388,1.388,0,0,0-.253.024Zm81.559-.843a2.462,2.462,0,0,1-1.854.819H42.962a3.624,3.624,0,0,0,.085-1.18l-.582-6.044H85.332l.432,4.5a2.418,2.418,0,0,1-.626,1.9" transform="translate(0)" fill="#1996fc" fill-rule="evenodd"/>
  </g>
</svg>
