<svg xmlns="http://www.w3.org/2000/svg" width="117.715" height="98.42" viewBox="0 0 117.715 98.42">
  <path id="sports" d="M464.072,387.255a45.817,45.817,0,0,0-1.761-15.656,1.269,1.269,0,0,0-.861-.86A45.593,45.593,0,0,0,445.845,369h-.14a45.931,45.931,0,0,0-6.332.861,1.445,1.445,0,0,0-.406.089c-.683.152-1.355.3-2.026.481a32.286,32.286,0,0,0-53.653-30.145h-.076v.064a32.208,32.208,0,0,0-10.133,23.483,14.319,14.319,0,0,0,.089,1.938h0a32.283,32.283,0,0,0-17.631,54.26l.089.089a32.194,32.194,0,0,0,23.089,9.8,32.65,32.65,0,0,0,8.626-1.178h.127A32.336,32.336,0,0,0,403.3,418.616a45.826,45.826,0,0,0,1.633,8.688,1.266,1.266,0,0,0,.861.862,45.5,45.5,0,0,0,57.328-34.083,1.674,1.674,0,0,0,.075-.355,46.478,46.478,0,0,0,.875-6.359h0ZM439.12,372.536l9.829,9.829-2.419,2.445h0a3.409,3.409,0,0,0-4.091.469l-1.266,1.266-.95-.95h0a3.328,3.328,0,0,0-4.7,0l-.671.671a3.3,3.3,0,0,0-.975,2.356,3.252,3.252,0,0,0,.975,2.343l.95.95-1.406,1.406-.95-.95a3.406,3.406,0,0,0-4.7,0l-.633.684a3.3,3.3,0,0,0,0,4.7l.95.95-1.407,1.406-.95-.95h0a3.3,3.3,0,0,0-4.7,0l-.671.67h0a3.328,3.328,0,0,0,0,4.7l.95.95-1.774,1.735a3.345,3.345,0,0,0-.418,4.18l-3.014,2.938L406.949,404.2a42.852,42.852,0,0,1,32.171-31.665Zm4.712,20.292,1.849,1.875a.783.783,0,0,1,.228.557.745.745,0,0,1-.228.557l-.67.671h0a.8.8,0,0,1-1.115,0l-1.849-1.862a1.269,1.269,0,0,0-1.8,0l-3.191,3.192a1.267,1.267,0,0,0,0,1.786l1.849,1.849a.774.774,0,0,1,0,1.115l-.671.671h0a.774.774,0,0,1-1.115,0l-1.85-1.85a1.266,1.266,0,0,0-1.785,0l-3.192,3.192a1.253,1.253,0,0,0,0,1.8l1.837,1.836h0a.787.787,0,0,1,0,1.128l-.671.671h0a.8.8,0,0,1-1.115,0l-1.849-1.849a1.265,1.265,0,0,0-1.786,0l-2.634,2.634a.8.8,0,0,1-1.115,0l-.671-.671h0a.784.784,0,0,1,0-1.127l2.622-2.622a1.253,1.253,0,0,0,0-1.8l-1.862-1.85a.785.785,0,0,1,0-1.114l.671-.671a.836.836,0,0,1,.57-.228.778.778,0,0,1,.557.228l1.849,1.849a1.268,1.268,0,0,0,1.787,0l3.191-3.192a1.267,1.267,0,0,0,0-1.786l-1.836-1.849a.808.808,0,0,1,0-1.127l.671-.671h0a.837.837,0,0,1,1.127,0l1.85,1.8a1.266,1.266,0,0,0,1.785,0l3.192-3.191h0a1.268,1.268,0,0,0,0-1.787l-1.849-1.849h0a.784.784,0,0,1-.228-.557.748.748,0,0,1,.228-.557l.671-.684h0a.787.787,0,0,1,1.114,0l1.849,1.837h0a1.266,1.266,0,0,0,1.8,0l2.178-2.077a.8.8,0,0,1,1.115,0l.672.633a.773.773,0,0,1,.24.557.762.762,0,0,1-.24.557l-2.179,2.191h0A1.267,1.267,0,0,0,443.832,392.828ZM406.6,381.3V365.167h9.347a33.713,33.713,0,0,0,3.712,14.211,42.277,42.277,0,0,0-3.18,2.862,44.851,44.851,0,0,0-6.308,7.93h0A32.108,32.108,0,0,0,406.6,381.3Zm15.084-3.52a30.984,30.984,0,0,1-3.2-12.667h16.579a29.876,29.876,0,0,1-.886,6.118A45.507,45.507,0,0,0,421.679,377.783Zm13.384-15.2H418.474a30.633,30.633,0,0,1,8.093-19.569A29.681,29.681,0,0,1,435.063,362.584Zm-28.481-28.41a29.566,29.566,0,0,1,18.112,7.169,33.209,33.209,0,0,0-8.764,21.291h-9.348Zm-2.533,0v28.46H394.7a33.193,33.193,0,0,0-8.764-21.279A29.656,29.656,0,0,1,404.049,334.173Zm-9.779,35.2a33.3,33.3,0,0,0,.406-4.205h9.373v12.425A32.439,32.439,0,0,0,394.27,369.372Zm5.979,7.7h-4.623l-1.62-4.977A29.784,29.784,0,0,1,400.249,377.072Zm-16.162-33.995a30.733,30.733,0,0,1,8.08,19.557H375.6A29.637,29.637,0,0,1,384.087,343.077Zm-8.462,22.089h16.466a23.715,23.715,0,0,1-.254,3,32.039,32.039,0,0,0-13.121-2.836,21.226,21.226,0,0,0-3.116.152A.872.872,0,0,0,375.625,365.166Zm-8.813,5.219a29.369,29.369,0,0,1,11.944-2.533,29.679,29.679,0,0,1,12.057,2.533l2.534,7.6L384.607,388H372.954l-8.639-10.019Zm20.771,30.575-8.866,6.409-8.866-6.409,3.357-10.36h10.906Zm-23.978-28.941-1.633,5.066H357.26A29.867,29.867,0,0,1,363.605,372.019Zm-8.142,44.128a29.844,29.844,0,0,1-4.23-7.194l4.61,1.862Zm-5.334-10.36h0a29.713,29.713,0,0,1,4.952-26.179v.011h7.233l8.638,10.019-3.635,11.045-10.349,7.866Zm7.7,12.982h0l.621-8.119,10.133-7.6,8.866,6.523v11.133l-7.435,5.4A29.882,29.882,0,0,1,357.832,418.769Zm20.884,8.626a30,30,0,0,1-5.433-.507l5.433-3.977,5.472,3.977A29.216,29.216,0,0,1,378.716,427.395Zm21.115-8.816a30.014,30.014,0,0,1-12.388,7.523h0l-7.46-5.395V409.573L389,403.024l10.272,7.6.558,7.954Zm3.3-3.964c-.3.431-.609.861-.925,1.266l-.367-5.117,1.507-.6C403.212,411.638,403.136,413.12,403.136,414.615Zm.584-7.246-3,1.267-10.6-7.967-3.572-11.032,8.74-10.019H402.4a29.51,29.51,0,0,1,5.827,13.933A45.619,45.619,0,0,0,403.72,407.369Zm3.495,18.493A43.37,43.37,0,0,1,405.7,413.7l13.692,13.679A43.082,43.082,0,0,1,407.215,425.862Zm15.554,1.33h0L405.9,410.308q.151-1.6.418-3.154l19.619,19.607C424.884,426.951,423.833,427.09,422.769,427.192Zm26.282-12.375h-.038a43.059,43.059,0,0,1-20.152,11.4l-9.993-10.1,3.04-2.989a3.269,3.269,0,0,0,3.951-.545l1.736-1.735.962.95a3.306,3.306,0,0,0,4.7,0l.671-.671h0a3.33,3.33,0,0,0,0-4.7l-.95-.949,1.393-1.407.95.963a3.344,3.344,0,0,0,4.712,0l.671-.671h0a3.346,3.346,0,0,0,0-4.712l-.963-.95,1.406-1.393.95.95h0a3.406,3.406,0,0,0,4.7,0l.671-.671h0a3.3,3.3,0,0,0,.975-2.355,3.253,3.253,0,0,0-.975-2.344l-.95-.963,1.266-1.266a3.357,3.357,0,0,0,.976-2.356,3.4,3.4,0,0,0-.38-1.7l2.419-2.457,9.817,9.816A42.879,42.879,0,0,1,449.051,414.817Zm12.07-23.851-19-19.062c1.063-.165,2.128-.291,3.2-.38L461.5,387.761C461.412,388.838,461.285,389.9,461.121,390.966Zm-12.362-19.529a42.47,42.47,0,0,1,11.349,1.545v-.051h0a43.515,43.515,0,0,1,1.545,11.337Z" transform="translate(-346.442 -331.597)" fill="#1996fc"/>
</svg>
