<svg xmlns="http://www.w3.org/2000/svg" xmlns:xlink="http://www.w3.org/1999/xlink" width="30" height="30" viewBox="0 0 30 30">
  <defs>
    <clipPath id="clip-path">
      <rect id="Rectangle_699" data-name="Rectangle 699" width="30" height="30" fill="#1996fc"/>
    </clipPath>
  </defs>
  <g id="tick" clip-path="url(#clip-path)">
    <path id="Path_1946" data-name="Path 1946" d="M28.61,8.684q-.805.9-1.516,1.8c-.221.253-.411.505-.632.789A12.045,12.045,0,1,1,15,2.968a12.307,12.307,0,0,1,5.874,1.516c.6-.6,1.2-1.168,1.832-1.737l.411-.347A14.848,14.848,0,0,0,15,0,15,15,0,1,0,30,15a15.138,15.138,0,0,0-1.39-6.316Z" fill="#1996fc"/>
    <path id="Path_1947" data-name="Path 1947" d="M151.92,50.923q-1.705,2.084-3.221,4.263c-.505.726-1.011,1.484-1.484,2.242l-4.042-4.989a1.461,1.461,0,0,0-1.926-.284,1.424,1.424,0,0,0-.379,1.99l5.084,7.547a1.884,1.884,0,0,0,1.453.789,1.788,1.788,0,0,0,1.547-.853c.284-.505,1.705-3.126,2.653-4.547.916-1.421,1.863-2.811,2.905-4.169,1.011-1.358,2.084-2.684,3.221-3.947a48.331,48.331,0,0,1,3.505-3.663l.031-.032a1.433,1.433,0,0,0,.095-1.99,1.414,1.414,0,0,0-2.021-.126c-1.39,1.232-2.621,2.463-3.853,3.758a53.128,53.128,0,0,0-3.568,4.01Z" transform="translate(-132.689 -40.376)" fill="#1996fc"/>
  </g>
</svg>
