<svg width="250" height="204" viewBox="0 0 250 204" fill="none" xmlns="http://www.w3.org/2000/svg">
<path d="M78.6001 203.6C172.9 203.6 224.5 125.4 224.5 57.7004C224.5 55.5004 224.5 53.3004 224.4 51.1004C234.4 43.9004 243.1 34.8004 250 24.5004C240.8 28.6004 230.9 31.3004 220.5 32.6004C231.1 26.3004 239.2 16.2004 243.1 4.20039C233.2 10.1004 222.2 14.3004 210.5 16.6004C201.1 6.60039 187.8 0.400391 173.1 0.400391C144.8 0.400391 121.8 23.4004 121.8 51.7004C121.8 55.7004 122.3 59.6004 123.1 63.4004C80.5001 61.3004 42.7001 40.8004 17.4001 9.80039C13.0001 17.4004 10.5001 26.2004 10.5001 35.6004C10.5001 53.4004 19.6001 69.1004 33.3001 78.3004C24.9001 78.0004 17.0001 75.7004 10.1001 71.9004C10.1001 72.1004 10.1001 72.3004 10.1001 72.6004C10.1001 97.4004 27.8001 118.2 51.2001 122.9C46.9001 124.1 42.4001 124.7 37.7001 124.7C34.4001 124.7 31.2001 124.4 28.1001 123.8C34.6001 144.2 53.6001 159 76.0001 159.4C58.4001 173.2 36.3001 181.4 12.3001 181.4C8.2001 181.4 4.1001 181.2 0.100098 180.7C22.7001 195.1 49.7001 203.6 78.6001 203.6Z" fill="white"/>
</svg>
